<svg xmlns="http://www.w3.org/2000/svg" viewBox="0 0 426 197" width="426" height="197" preserveAspectRatio="xMidYMid meet" style="width: 100%; height: 100%; transform: translate3d(0px, 0px, 0px);">
    <defs>
        <g id="bffQWWEGASDh1" ></g>
        <g id="corner" opacity="1" transform="matrix(1,0,0,1,70,0)">
            <path stroke-linecap="round" stroke-linejoin="round" fill-opacity="0" stroke="rgb(25,228,236)" stroke-opacity="1" stroke-width="2" d=" M194.93800354003906,-83.83399963378906 C201.10699462890625,-83.83399963378906 204.5,-83.83399963378906 204.5,-83.83399963378906 C204.5,-83.83399963378906 204.5,-83.83399963378906 204.5,-83.83399963378906 C204.5,-83.83399963378906 204.5,-80.12100219726562 204.5,-73.802001953125"></path>
        </g>
        <rect id="space" width="132" height="15" />
        <rect id="space1" width="132" height="15" />
    </defs>
    <!-- <rect width="100%" height="100%" opacity="0.5" fill=""/> -->
    <g transform="matrix(1,0,0,1,143,98.5)" opacity="1" style="display: block;">
        <g id="corners" opacity="0">
            <use href="#corner" />
            <use href="#corner" transform="scale(1, -1)" />
            <use href="#corner" transform="scale(-1, -1) translate(-140, 0)" />
            <use href="#corner" transform="scale(-1, 1) translate(-140, 0)" />
        </g>
        <g id="border" opacity="1" transform="matrix(1,0,0,1,70,0)">
            <path id="border" stroke-dasharray="5766" stroke-linecap="butt" stroke-linejoin="miter" fill-opacity="0" stroke-miterlimit="4" stroke="rgb(25,228,236)" stroke-opacity="1" stroke-width="1" d=" M204.5,-83.83350372314453 C204.5,-83.83350372314453 204.5,83.83350372314453 204.5,83.83350372314453 C204.5,83.83350372314453 -204.5,83.83350372314453 -204.5,83.83350372314453 C-204.5,83.83350372314453 -204.5,-83.83350372314453 -204.5,-83.83350372314453 C-204.5,-83.83350372314453 204.5,-83.83350372314453 204.5,-83.83350372314453z"></path>
        </g>
    </g>
    <g id="esc" fill="rgb(1,255,252)" font-size="12" font-family="Audimat Mono" font-style="normal" font-weight="200" aria-label="ESC   1    2    3    4    5    6    7    8    9    0   BACK" transform="matrix(1,0,0,1,20.214000701904297,44.78900146484375)" opacity="1">
        <path stroke-linecap="butt" stroke-linejoin="round" stroke-miterlimit="4" d=" M4.74,-7.58 C4.74,-7.58 1.58,-7.58 1.58,-7.58 C1.58,-7.58 1.58,0 1.58,0 C1.58,0 4.74,0 4.74,0 C4.74,0 4.74,-0.63 4.74,-0.63 C4.74,-0.63 2.21,-0.63 2.21,-0.63 C2.21,-0.63 2.21,-3.47 2.21,-3.47 C2.21,-3.47 4.42,-3.47 4.42,-3.47 C4.42,-3.47 4.42,-4.11 4.42,-4.11 C4.42,-4.11 2.21,-4.11 2.21,-4.11 C2.21,-4.11 2.21,-6.95 2.21,-6.95 C2.21,-6.95 4.74,-6.95 4.74,-6.95 C4.74,-6.95 4.74,-7.58 4.74,-7.58z M9.79,-3.47 C10.42,-3.43 10.74,-3.12 10.74,-2.53 C10.74,-2.53 10.74,-1.58 10.74,-1.58 C10.69,-0.95 10.38,-0.63 9.79,-0.63 C9.79,-0.63 9.16,-0.63 9.16,-0.63 C8.53,-0.67 8.21,-0.99 8.21,-1.58 C8.21,-1.58 8.21,-2.21 8.21,-2.21 C8.21,-2.21 7.58,-2.21 7.58,-2.21 C7.58,-2.21 7.58,-1.58 7.58,-1.58 C7.65,-0.53 8.18,0 9.16,0 C9.16,0 9.79,0 9.79,0 C10.77,0 11.29,-0.53 11.37,-1.58 C11.37,-1.58 11.37,-2.53 11.37,-2.53 C11.29,-3.58 10.77,-4.11 9.79,-4.11 C9.79,-4.11 9.16,-4.11 9.16,-4.11 C8.57,-4.11 8.25,-4.42 8.21,-5.05 C8.21,-5.05 8.21,-6 8.21,-6 C8.25,-6.63 8.57,-6.95 9.16,-6.95 C9.16,-6.95 9.79,-6.95 9.79,-6.95 C10.42,-6.91 10.74,-6.59 10.74,-6 C10.74,-6 10.74,-5.37 10.74,-5.37 C10.74,-5.37 11.37,-5.37 11.37,-5.37 C11.37,-5.37 11.37,-6 11.37,-6 C11.29,-7.05 10.77,-7.58 9.79,-7.58 C9.79,-7.58 9.16,-7.58 9.16,-7.58 C8.18,-7.58 7.65,-7.05 7.58,-6 C7.58,-6 7.58,-5.05 7.58,-5.05 C7.58,-4.07 8.1,-3.55 9.16,-3.47 C9.16,-3.47 9.79,-3.47 9.79,-3.47z M17.68,-6 C17.61,-7.05 17.08,-7.58 16.1,-7.58 C16.1,-7.58 15.47,-7.58 15.47,-7.58 C14.49,-7.58 13.97,-7.05 13.89,-6 C13.89,-6 13.89,-1.58 13.89,-1.58 C13.97,-0.53 14.49,0 15.47,0 C15.47,0 16.1,0 16.1,0 C17.08,0 17.61,-0.53 17.68,-1.58 C17.68,-1.58 17.68,-2.21 17.68,-2.21 C17.68,-2.21 17.05,-2.21 17.05,-2.21 C17.05,-2.21 17.05,-1.58 17.05,-1.58 C17.05,-0.99 16.74,-0.67 16.1,-0.63 C16.1,-0.63 15.47,-0.63 15.47,-0.63 C14.88,-0.63 14.57,-0.95 14.53,-1.58 C14.53,-1.58 14.53,-6 14.53,-6 C14.57,-6.63 14.88,-6.95 15.47,-6.95 C15.47,-6.95 16.1,-6.95 16.1,-6.95 C16.74,-6.91 17.05,-6.59 17.05,-6 C17.05,-6 17.05,-5.37 17.05,-5.37 C17.05,-5.37 17.68,-5.37 17.68,-5.37 C17.68,-5.37 17.68,-6 17.68,-6z M39.47,-6.31 C39.47,-6.31 40.74,-6.94 40.74,-6.94 C40.74,-6.94 40.74,-0.63 40.74,-0.63 C40.74,-0.63 39.47,-0.63 39.47,-0.63 C39.47,-0.63 39.47,0 39.47,0 C39.47,0 42.63,0 42.63,0 C42.63,0 42.63,-0.63 42.63,-0.63 C42.63,-0.63 41.37,-0.63 41.37,-0.63 C41.37,-0.63 41.37,-7.58 41.37,-7.58 C41.37,-7.58 40.74,-7.58 40.74,-7.58 C40.74,-7.58 39.47,-6.95 39.47,-6.95 C39.47,-6.95 39.47,-6.31 39.47,-6.31z M74.52,0 C74.52,0 74.52,-0.63 74.52,-0.63 C74.52,-0.63 71.37,-0.63 71.37,-0.63 C71.37,-0.63 71.37,-2.21 71.37,-2.21 C71.37,-2.8 71.68,-3.12 72.31,-3.16 C72.31,-3.16 72.95,-3.16 72.95,-3.16 C74,-3.23 74.52,-3.76 74.52,-4.74 C74.52,-4.74 74.52,-6 74.52,-6 C74.45,-7.05 73.92,-7.58 72.95,-7.58 C72.95,-7.58 72.31,-7.58 72.31,-7.58 C71.33,-7.58 70.81,-7.05 70.73,-6 C70.73,-6 70.73,-5.37 70.73,-5.37 C70.73,-5.37 71.37,-5.37 71.37,-5.37 C71.37,-5.37 71.37,-6 71.37,-6 C71.37,-6.59 71.68,-6.91 72.31,-6.95 C72.31,-6.95 72.95,-6.95 72.95,-6.95 C73.53,-6.95 73.85,-6.63 73.89,-6 C73.89,-6 73.89,-4.74 73.89,-4.74 C73.85,-4.11 73.53,-3.79 72.95,-3.79 C72.95,-3.79 72.31,-3.79 72.31,-3.79 C71.33,-3.79 70.81,-3.26 70.73,-2.21 C70.73,-2.21 70.73,0 70.73,0 C70.73,0 74.52,0 74.52,0z M106.1,-6 C106.03,-7.05 105.5,-7.58 104.52,-7.58 C104.52,-7.58 103.89,-7.58 103.89,-7.58 C102.91,-7.58 102.39,-7.05 102.31,-6 C102.31,-6 102.31,-5.37 102.31,-5.37 C102.31,-5.37 102.94,-5.37 102.94,-5.37 C102.94,-5.37 102.94,-6 102.94,-6 C102.94,-6.59 103.26,-6.91 103.89,-6.95 C103.89,-6.95 104.52,-6.95 104.52,-6.95 C105.11,-6.95 105.43,-6.63 105.47,-6 C105.47,-6 105.47,-5.05 105.47,-5.05 C105.47,-4.46 105.15,-4.15 104.52,-4.11 C104.52,-4.11 103.58,-4.11 103.58,-4.11 C103.58,-4.11 103.58,-3.47 103.58,-3.47 C103.58,-3.47 104.52,-3.47 104.52,-3.47 C105.11,-3.47 105.43,-3.16 105.47,-2.53 C105.47,-2.53 105.47,-1.58 105.47,-1.58 C105.43,-0.95 105.11,-0.63 104.52,-0.63 C104.52,-0.63 103.89,-0.63 103.89,-0.63 C103.26,-0.67 102.94,-0.99 102.94,-1.58 C102.94,-1.58 102.94,-2.21 102.94,-2.21 C102.94,-2.21 102.31,-2.21 102.31,-2.21 C102.31,-2.21 102.31,-1.58 102.31,-1.58 C102.39,-0.53 102.91,0 103.89,0 C103.89,0 104.52,0 104.52,0 C105.5,0 106.03,-0.53 106.1,-1.58 C106.1,-1.58 106.1,-2.53 106.1,-2.53 C106.1,-3.02 105.91,-3.44 105.53,-3.79 C105.91,-4.14 106.1,-4.56 106.1,-5.05 C106.1,-5.05 106.1,-6 106.1,-6z M137.06,-2.53 C137.06,-2.53 137.06,-7.58 137.06,-7.58 C137.06,-7.58 136.43,-7.58 136.43,-7.58 C136.43,-7.58 133.59,-2.53 133.59,-2.53 C133.59,-2.53 133.59,-1.89 133.59,-1.89 C133.59,-1.89 136.43,-1.89 136.43,-1.89 C136.43,-1.89 136.43,0 136.43,0 C136.43,0 137.06,0 137.06,0 C137.06,0 137.06,-1.89 137.06,-1.89 C137.06,-1.89 137.7,-1.89 137.7,-1.89 C137.7,-1.89 137.7,-2.53 137.7,-2.53 C137.7,-2.53 137.06,-2.53 137.06,-2.53z M136.43,-6.61 C136.43,-6.61 136.43,-2.53 136.43,-2.53 C136.43,-2.53 134.22,-2.53 134.22,-2.53 C134.22,-2.53 136.43,-6.61 136.43,-6.61z M167.68,-3.79 C168.31,-3.75 168.63,-3.43 168.63,-2.84 C168.63,-2.84 168.63,-1.58 168.63,-1.58 C168.58,-0.95 168.27,-0.63 167.68,-0.63 C167.68,-0.63 167.05,-0.63 167.05,-0.63 C166.42,-0.67 166.1,-0.99 166.1,-1.58 C166.1,-1.58 166.1,-2.21 166.1,-2.21 C166.1,-2.21 165.47,-2.21 165.47,-2.21 C165.47,-2.21 165.47,-1.58 165.47,-1.58 C165.54,-0.53 166.07,0 167.05,0 C167.05,0 167.68,0 167.68,0 C168.66,0 169.18,-0.53 169.26,-1.58 C169.26,-1.58 169.26,-2.84 169.26,-2.84 C169.18,-3.89 168.66,-4.42 167.68,-4.42 C167.68,-4.42 166.1,-4.42 166.1,-4.42 C166.1,-4.42 166.1,-6.95 166.1,-6.95 C166.1,-6.95 169.26,-6.95 169.26,-6.95 C169.26,-6.95 169.26,-7.58 169.26,-7.58 C169.26,-7.58 165.47,-7.58 165.47,-7.58 C165.47,-7.58 165.47,-3.79 165.47,-3.79 C165.47,-3.79 167.68,-3.79 167.68,-3.79z M197.05,-6 C197.05,-6 197.05,-1.58 197.05,-1.58 C197.12,-0.53 197.65,0 198.63,0 C198.63,0 199.26,0 199.26,0 C200.24,0 200.76,-0.53 200.84,-1.58 C200.84,-1.58 200.84,-2.84 200.84,-2.84 C200.76,-3.89 200.24,-4.42 199.26,-4.42 C199.26,-4.42 197.68,-4.42 197.68,-4.42 C197.68,-4.42 197.68,-6 197.68,-6 C197.72,-6.63 198.04,-6.95 198.63,-6.95 C198.63,-6.95 200.84,-6.95 200.84,-6.95 C200.84,-6.95 200.84,-7.58 200.84,-7.58 C200.84,-7.58 198.63,-7.58 198.63,-7.58 C197.57,-7.51 197.05,-6.98 197.05,-6z M200.2,-2.84 C200.2,-2.84 200.2,-1.58 200.2,-1.58 C200.16,-0.95 199.85,-0.63 199.26,-0.63 C199.26,-0.63 198.63,-0.63 198.63,-0.63 C197.99,-0.67 197.68,-0.99 197.68,-1.58 C197.68,-1.58 197.68,-3.79 197.68,-3.79 C197.68,-3.79 199.26,-3.79 199.26,-3.79 C199.89,-3.75 200.2,-3.43 200.2,-2.84z M228.62,-6.95 C228.62,-6.95 231.79,-6.95 231.79,-6.95 C231.79,-6.95 229.89,-0.61 229.89,-0.61 C229.89,-0.61 229.89,0 229.89,0 C229.89,0 230.52,0 230.52,0 C230.52,0 230.52,-0.63 230.52,-0.63 C230.52,-0.63 232.41,-6.95 232.41,-6.95 C232.41,-6.95 232.41,-7.58 232.41,-7.58 C232.41,-7.58 228.62,-7.58 228.62,-7.58 C228.62,-7.58 228.62,-6.95 228.62,-6.95z M263.99,-6 C263.92,-7.05 263.39,-7.58 262.41,-7.58 C262.41,-7.58 261.78,-7.58 261.78,-7.58 C260.8,-7.58 260.28,-7.05 260.2,-6 C260.2,-6 260.2,-5.05 260.2,-5.05 C260.2,-4.56 260.39,-4.14 260.77,-3.79 C260.39,-3.44 260.2,-3.02 260.2,-2.53 C260.2,-2.53 260.2,-1.58 260.2,-1.58 C260.28,-0.53 260.8,0 261.78,0 C261.78,0 262.41,0 262.41,0 C263.39,0 263.92,-0.53 263.99,-1.58 C263.99,-1.58 263.99,-2.53 263.99,-2.53 C263.99,-3.02 263.8,-3.44 263.42,-3.79 C263.8,-4.14 263.99,-4.56 263.99,-5.05 C263.99,-5.05 263.99,-6 263.99,-6z M262.41,-0.63 C262.41,-0.63 261.78,-0.63 261.78,-0.63 C261.19,-0.63 260.88,-0.95 260.83,-1.58 C260.83,-1.58 260.83,-2.53 260.83,-2.53 C260.88,-3.16 261.19,-3.47 261.78,-3.47 C261.78,-3.47 262.41,-3.47 262.41,-3.47 C263,-3.47 263.32,-3.16 263.36,-2.53 C263.36,-2.53 263.36,-1.58 263.36,-1.58 C263.32,-0.95 263,-0.63 262.41,-0.63z M262.41,-4.11 C262.41,-4.11 261.78,-4.11 261.78,-4.11 C261.15,-4.15 260.83,-4.46 260.83,-5.05 C260.83,-5.05 260.83,-6 260.83,-6 C260.88,-6.63 261.19,-6.95 261.78,-6.95 C261.78,-6.95 262.41,-6.95 262.41,-6.95 C263,-6.95 263.32,-6.63 263.36,-6 C263.36,-6 263.36,-5.05 263.36,-5.05 C263.36,-4.46 263.04,-4.15 262.41,-4.11z M295.57,-1.58 C295.57,-1.58 295.57,-6 295.57,-6 C295.5,-7.05 294.97,-7.58 293.99,-7.58 C293.99,-7.58 293.36,-7.58 293.36,-7.58 C292.38,-7.58 291.85,-7.05 291.78,-6 C291.78,-6 291.78,-4.74 291.78,-4.74 C291.85,-3.68 292.38,-3.16 293.36,-3.16 C293.36,-3.16 294.94,-3.16 294.94,-3.16 C294.94,-3.16 294.94,-1.58 294.94,-1.58 C294.9,-0.95 294.58,-0.63 293.99,-0.63 C293.99,-0.63 291.78,-0.63 291.78,-0.63 C291.78,-0.63 291.78,0 291.78,0 C291.78,0 293.99,0 293.99,0 C295.04,-0.07 295.57,-0.6 295.57,-1.58z M292.41,-4.74 C292.41,-4.74 292.41,-6 292.41,-6 C292.45,-6.63 292.77,-6.95 293.36,-6.95 C293.36,-6.95 293.99,-6.95 293.99,-6.95 C294.62,-6.91 294.94,-6.59 294.94,-6 C294.94,-6 294.94,-3.79 294.94,-3.79 C294.94,-3.79 293.36,-3.79 293.36,-3.79 C292.73,-3.83 292.41,-4.15 292.41,-4.74z M323.91,-7.03 C323.54,-6.66 323.36,-6.21 323.36,-5.68 C323.36,-5.68 323.36,-1.89 323.36,-1.89 C323.36,-1.37 323.54,-0.92 323.91,-0.55 C324.28,-0.18 324.73,0 325.25,0 C325.78,0 326.23,-0.18 326.6,-0.55 C326.96,-0.92 327.15,-1.37 327.15,-1.89 C327.15,-1.89 327.15,-5.68 327.15,-5.68 C327.15,-6.21 326.96,-6.66 326.6,-7.03 C326.23,-7.39 325.78,-7.58 325.25,-7.58 C324.73,-7.58 324.28,-7.39 323.91,-7.03z M326.15,-1 C325.9,-0.76 325.6,-0.63 325.25,-0.63 C324.91,-0.63 324.61,-0.76 324.36,-1 C324.11,-1.25 323.99,-1.55 323.99,-1.89 C323.99,-1.89 323.99,-5.68 323.99,-5.68 C323.99,-6.03 324.11,-6.33 324.36,-6.58 C324.61,-6.82 324.91,-6.95 325.25,-6.95 C325.6,-6.95 325.9,-6.82 326.15,-6.58 C326.39,-6.33 326.52,-6.03 326.52,-5.68 C326.52,-5.68 326.52,-1.89 326.52,-1.89 C326.52,-1.55 326.39,-1.25 326.15,-1z M352.09,-5.05 C352.09,-5.05 352.09,-6 352.09,-6 C352.02,-7.05 351.49,-7.58 350.52,-7.58 C350.52,-7.58 348.62,-7.58 348.62,-7.58 C348.62,-7.58 348.62,0 348.62,0 C348.62,0 350.83,0 350.83,0 C351.81,0 352.34,-0.53 352.41,-1.58 C352.41,-1.58 352.41,-2.53 352.41,-2.53 C352.41,-3.19 352.12,-3.67 351.54,-3.96 C351.91,-4.24 352.09,-4.6 352.09,-5.05z M350.52,-6.95 C351.15,-6.91 351.46,-6.59 351.46,-6 C351.46,-6 351.46,-5.05 351.46,-5.05 C351.46,-4.46 351.15,-4.15 350.52,-4.11 C350.52,-4.11 349.25,-4.11 349.25,-4.11 C349.25,-4.11 349.25,-6.95 349.25,-6.95 C349.25,-6.95 350.52,-6.95 350.52,-6.95z M350.83,-0.63 C350.83,-0.63 349.25,-0.63 349.25,-0.63 C349.25,-0.63 349.25,-3.47 349.25,-3.47 C349.25,-3.47 350.83,-3.47 350.83,-3.47 C351.46,-3.43 351.78,-3.12 351.78,-2.53 C351.78,-2.53 351.78,-1.58 351.78,-1.58 C351.78,-0.99 351.46,-0.67 350.83,-0.63z M357.72,-2.53 C357.72,-2.53 358.09,-0.63 358.09,-0.63 C358.09,-0.63 358.09,0 358.09,0 C358.09,0 358.73,0 358.73,0 C358.73,0 358.73,-0.63 358.73,-0.63 C358.73,-0.63 357.15,-7.58 357.15,-7.58 C357.15,-7.58 356.52,-7.58 356.52,-7.58 C356.52,-7.58 354.94,-0.63 354.94,-0.63 C354.94,-0.63 354.94,0 354.94,0 C354.94,0 355.57,0 355.57,0 C355.57,0 355.57,-0.63 355.57,-0.63 C355.57,-0.63 355.95,-2.53 355.95,-2.53 C355.95,-2.53 357.72,-2.53 357.72,-2.53z M356.07,-3.16 C356.07,-3.16 356.83,-6.95 356.83,-6.95 C356.83,-6.95 357.59,-3.16 357.59,-3.16 C357.59,-3.16 356.07,-3.16 356.07,-3.16z M365.04,-6 C364.97,-7.05 364.44,-7.58 363.46,-7.58 C363.46,-7.58 362.83,-7.58 362.83,-7.58 C361.85,-7.58 361.33,-7.05 361.25,-6 C361.25,-6 361.25,-1.58 361.25,-1.58 C361.33,-0.53 361.85,0 362.83,0 C362.83,0 363.46,0 363.46,0 C364.44,0 364.97,-0.53 365.04,-1.58 C365.04,-1.58 365.04,-2.21 365.04,-2.21 C365.04,-2.21 364.41,-2.21 364.41,-2.21 C364.41,-2.21 364.41,-1.58 364.41,-1.58 C364.41,-0.99 364.09,-0.67 363.46,-0.63 C363.46,-0.63 362.83,-0.63 362.83,-0.63 C362.24,-0.63 361.93,-0.95 361.88,-1.58 C361.88,-1.58 361.88,-6 361.88,-6 C361.93,-6.63 362.24,-6.95 362.83,-6.95 C362.83,-6.95 363.46,-6.95 363.46,-6.95 C364.09,-6.91 364.41,-6.59 364.41,-6 C364.41,-6 364.41,-5.37 364.41,-5.37 C364.41,-5.37 365.04,-5.37 365.04,-5.37 C365.04,-5.37 365.04,-6 365.04,-6z M370.79,-3.77 C370.56,-3.94 370.27,-4.05 369.94,-4.09 C369.94,-4.09 371.36,-6.95 371.36,-6.95 C371.36,-6.95 371.36,-7.58 371.36,-7.58 C371.36,-7.58 370.73,-7.58 370.73,-7.58 C370.73,-7.58 370.73,-6.95 370.73,-6.95 C370.73,-6.95 369.29,-4.11 369.29,-4.11 C369.29,-4.11 368.2,-4.11 368.2,-4.11 C368.2,-4.11 368.2,-7.58 368.2,-7.58 C368.2,-7.58 367.57,-7.58 367.57,-7.58 C367.57,-7.58 367.57,0 367.57,0 C367.57,0 368.2,0 368.2,0 C368.2,0 368.2,-3.47 368.2,-3.47 C368.2,-3.47 369.78,-3.47 369.78,-3.47 C370.41,-3.43 370.73,-3.12 370.73,-2.53 C370.73,-2.53 370.73,0 370.73,0 C370.73,0 371.36,0 371.36,0 C371.36,0 371.36,-2.53 371.36,-2.53 C371.36,-3.07 371.17,-3.49 370.79,-3.77z" style="display: inherit;"></path>
    </g>
    <g id="tab" fill="rgb(1,255,252)" font-size="12" font-family="Audimat Mono" font-style="normal" font-weight="200" aria-label="TAB     Q   W   E   R   T   U   I   O   P   [   ]     DELETE" transform="matrix(1,0,0,1,213.1580047607422,73.78900146484375)" opacity="1">
        <path stroke-linecap="butt" stroke-linejoin="round" stroke-miterlimit="4" d=" M-188.52,-7.58 C-188.52,-7.58 -188.52,-6.95 -188.52,-6.95 C-188.52,-6.95 -186.63,-6.95 -186.63,-6.95 C-186.63,-6.95 -186.63,0 -186.63,0 C-186.63,0 -185.99,0 -185.99,0 C-185.99,0 -185.99,-6.95 -185.99,-6.95 C-185.99,-6.95 -184.1,-6.95 -184.1,-6.95 C-184.1,-6.95 -184.1,-7.58 -184.1,-7.58 C-184.1,-7.58 -188.52,-7.58 -188.52,-7.58z M-179.11,-2.53 C-179.11,-2.53 -178.73,-0.63 -178.73,-0.63 C-178.73,-0.63 -178.73,0 -178.73,0 C-178.73,0 -178.1,0 -178.1,0 C-178.1,0 -178.1,-0.63 -178.1,-0.63 C-178.1,-0.63 -179.68,-7.58 -179.68,-7.58 C-179.68,-7.58 -180.31,-7.58 -180.31,-7.58 C-180.31,-7.58 -181.89,-0.63 -181.89,-0.63 C-181.89,-0.63 -181.89,0 -181.89,0 C-181.89,0 -181.26,0 -181.26,0 C-181.26,0 -181.26,-0.63 -181.26,-0.63 C-181.26,-0.63 -180.88,-2.53 -180.88,-2.53 C-180.88,-2.53 -179.11,-2.53 -179.11,-2.53z M-180.75,-3.16 C-180.75,-3.16 -179.99,-6.95 -179.99,-6.95 C-179.99,-6.95 -179.24,-3.16 -179.24,-3.16 C-179.24,-3.16 -180.75,-3.16 -180.75,-3.16z M-172.1,-5.05 C-172.1,-5.05 -172.1,-6 -172.1,-6 C-172.17,-7.05 -172.7,-7.58 -173.68,-7.58 C-173.68,-7.58 -175.57,-7.58 -175.57,-7.58 C-175.57,-7.58 -175.57,0 -175.57,0 C-175.57,0 -173.36,0 -173.36,0 C-172.38,0 -171.86,-0.53 -171.78,-1.58 C-171.78,-1.58 -171.78,-2.53 -171.78,-2.53 C-171.78,-3.19 -172.07,-3.67 -172.65,-3.96 C-172.28,-4.24 -172.1,-4.6 -172.1,-5.05z M-173.68,-6.95 C-173.05,-6.91 -172.73,-6.59 -172.73,-6 C-172.73,-6 -172.73,-5.05 -172.73,-5.05 C-172.73,-4.46 -173.05,-4.15 -173.68,-4.11 C-173.68,-4.11 -174.94,-4.11 -174.94,-4.11 C-174.94,-4.11 -174.94,-6.95 -174.94,-6.95 C-174.94,-6.95 -173.68,-6.95 -173.68,-6.95z M-173.36,-0.63 C-173.36,-0.63 -174.94,-0.63 -174.94,-0.63 C-174.94,-0.63 -174.94,-3.47 -174.94,-3.47 C-174.94,-3.47 -173.36,-3.47 -173.36,-3.47 C-172.73,-3.43 -172.42,-3.12 -172.42,-2.53 C-172.42,-2.53 -172.42,-1.58 -172.42,-1.58 C-172.42,-0.99 -172.73,-0.67 -173.36,-0.63z M-136.1,-7.58 C-137.08,-7.58 -137.61,-7.05 -137.68,-6 C-137.68,-6 -137.68,-1.58 -137.68,-1.58 C-137.61,-0.53 -137.08,0 -136.1,0 C-136.1,0 -135.98,0 -135.98,0 C-135.98,0 -135.47,1.26 -135.47,1.26 C-135.47,1.26 -134.84,1.26 -134.84,1.26 C-134.84,1.26 -135.35,-0.01 -135.35,-0.01 C-135.01,-0.04 -134.72,-0.14 -134.48,-0.31 C-134.09,-0.59 -133.89,-1.01 -133.89,-1.58 C-133.89,-1.58 -133.89,-6 -133.89,-6 C-133.96,-7.05 -134.49,-7.58 -135.47,-7.58 C-135.47,-7.58 -136.1,-7.58 -136.1,-7.58z M-135.47,-0.63 C-135.47,-0.63 -136.1,-0.63 -136.1,-0.63 C-136.69,-0.63 -137.01,-0.95 -137.05,-1.58 C-137.05,-1.58 -137.05,-6 -137.05,-6 C-137.01,-6.63 -136.69,-6.95 -136.1,-6.95 C-136.1,-6.95 -135.47,-6.95 -135.47,-6.95 C-134.84,-6.91 -134.52,-6.59 -134.52,-6 C-134.52,-6 -134.52,-1.58 -134.52,-1.58 C-134.52,-0.99 -134.84,-0.67 -135.47,-0.63z M-110.52,-2.53 C-110.52,-2.53 -109.89,-0.63 -109.89,-0.63 C-109.89,-0.63 -109.89,0 -109.89,0 C-109.89,0 -109.26,0 -109.26,0 C-109.26,0 -108.63,-6.95 -108.63,-6.95 C-108.63,-6.95 -108.63,-7.58 -108.63,-7.58 C-108.63,-7.58 -109.26,-7.58 -109.26,-7.58 C-109.26,-7.58 -109.26,-6.95 -109.26,-6.95 C-109.26,-6.95 -109.8,-1.6 -109.8,-1.6 C-109.8,-1.6 -110.52,-3.77 -110.52,-3.77 C-110.52,-3.77 -111.25,-1.6 -111.25,-1.6 C-111.25,-1.6 -111.79,-6.95 -111.79,-6.95 C-111.79,-6.95 -111.79,-7.58 -111.79,-7.58 C-111.79,-7.58 -112.42,-7.58 -112.42,-7.58 C-112.42,-7.58 -111.79,-0.63 -111.79,-0.63 C-111.79,-0.63 -111.79,0 -111.79,0 C-111.79,0 -111.15,0 -111.15,0 C-111.15,0 -111.15,-0.63 -111.15,-0.63 C-111.15,-0.63 -110.52,-2.53 -110.52,-2.53z M-83.68,-7.58 C-83.68,-7.58 -86.84,-7.58 -86.84,-7.58 C-86.84,-7.58 -86.84,0 -86.84,0 C-86.84,0 -83.68,0 -83.68,0 C-83.68,0 -83.68,-0.63 -83.68,-0.63 C-83.68,-0.63 -86.21,-0.63 -86.21,-0.63 C-86.21,-0.63 -86.21,-3.47 -86.21,-3.47 C-86.21,-3.47 -84,-3.47 -84,-3.47 C-84,-3.47 -84,-4.11 -84,-4.11 C-84,-4.11 -86.21,-4.11 -86.21,-4.11 C-86.21,-4.11 -86.21,-6.95 -86.21,-6.95 C-86.21,-6.95 -83.68,-6.95 -83.68,-6.95 C-83.68,-6.95 -83.68,-7.58 -83.68,-7.58z M-58.1,-6 C-58.18,-7.05 -58.7,-7.58 -59.68,-7.58 C-59.68,-7.58 -61.89,-7.58 -61.89,-7.58 C-61.89,-7.58 -61.89,0 -61.89,0 C-61.89,0 -61.26,0 -61.26,0 C-61.26,0 -61.26,-3.47 -61.26,-3.47 C-61.26,-3.47 -60.15,-3.47 -60.15,-3.47 C-60.15,-3.47 -58.73,-0.66 -58.73,-0.66 C-58.73,-0.66 -58.73,0 -58.73,0 C-58.73,0 -58.1,0 -58.1,0 C-58.1,0 -58.1,-0.63 -58.1,-0.63 C-58.1,-0.63 -59.52,-3.49 -59.52,-3.49 C-59.19,-3.53 -58.9,-3.64 -58.67,-3.81 C-58.29,-4.09 -58.1,-4.51 -58.1,-5.05 C-58.1,-5.05 -58.1,-6 -58.1,-6z M-59.68,-4.11 C-59.68,-4.11 -61.26,-4.11 -61.26,-4.11 C-61.26,-4.11 -61.26,-6.95 -61.26,-6.95 C-61.26,-6.95 -59.68,-6.95 -59.68,-6.95 C-59.05,-6.91 -58.73,-6.59 -58.73,-6 C-58.73,-6 -58.73,-5.05 -58.73,-5.05 C-58.73,-4.46 -59.05,-4.15 -59.68,-4.11z M-36.95,-7.58 C-36.95,-7.58 -36.95,-6.95 -36.95,-6.95 C-36.95,-6.95 -35.05,-6.95 -35.05,-6.95 C-35.05,-6.95 -35.05,0 -35.05,0 C-35.05,0 -34.42,0 -34.42,0 C-34.42,0 -34.42,-6.95 -34.42,-6.95 C-34.42,-6.95 -32.53,-6.95 -32.53,-6.95 C-32.53,-6.95 -32.53,-7.58 -32.53,-7.58 C-32.53,-7.58 -36.95,-7.58 -36.95,-7.58z M-8.21,-1.58 C-8.21,-0.99 -8.53,-0.67 -9.16,-0.63 C-9.16,-0.63 -9.79,-0.63 -9.79,-0.63 C-10.38,-0.63 -10.69,-0.95 -10.74,-1.58 C-10.74,-1.58 -10.74,-7.58 -10.74,-7.58 C-10.74,-7.58 -11.37,-7.58 -11.37,-7.58 C-11.37,-7.58 -11.37,-1.58 -11.37,-1.58 C-11.29,-0.53 -10.77,0 -9.79,0 C-9.79,0 -9.16,0 -9.16,0 C-8.18,0 -7.65,-0.53 -7.58,-1.58 C-7.58,-1.58 -7.58,-7.58 -7.58,-7.58 C-7.58,-7.58 -8.21,-7.58 -8.21,-7.58 C-8.21,-7.58 -8.21,-1.58 -8.21,-1.58z M17.37,-7.58 C17.37,-7.58 14.21,-7.58 14.21,-7.58 C14.21,-7.58 14.21,-6.95 14.21,-6.95 C14.21,-6.95 15.47,-6.95 15.47,-6.95 C15.47,-6.95 15.47,-0.63 15.47,-0.63 C15.47,-0.63 14.21,-0.63 14.21,-0.63 C14.21,-0.63 14.21,0 14.21,0 C14.21,0 17.37,0 17.37,0 C17.37,0 17.37,-0.63 17.37,-0.63 C17.37,-0.63 16.1,-0.63 16.1,-0.63 C16.1,-0.63 16.1,-6.95 16.1,-6.95 C16.1,-6.95 17.37,-6.95 17.37,-6.95 C17.37,-6.95 17.37,-7.58 17.37,-7.58z M40.74,-7.58 C39.76,-7.58 39.23,-7.05 39.16,-6 C39.16,-6 39.16,-1.58 39.16,-1.58 C39.23,-0.53 39.76,0 40.74,0 C40.74,0 41.37,0 41.37,0 C42.35,0 42.87,-0.53 42.95,-1.58 C42.95,-1.58 42.95,-6 42.95,-6 C42.87,-7.05 42.35,-7.58 41.37,-7.58 C41.37,-7.58 40.74,-7.58 40.74,-7.58z M41.37,-0.63 C41.37,-0.63 40.74,-0.63 40.74,-0.63 C40.15,-0.63 39.83,-0.95 39.79,-1.58 C39.79,-1.58 39.79,-6 39.79,-6 C39.83,-6.63 40.15,-6.95 40.74,-6.95 C40.74,-6.95 41.37,-6.95 41.37,-6.95 C42,-6.91 42.31,-6.59 42.31,-6 C42.31,-6 42.31,-1.58 42.31,-1.58 C42.31,-0.99 42,-0.67 41.37,-0.63z M64.42,-7.58 C64.42,-7.58 64.42,0 64.42,0 C64.42,0 65.05,0 65.05,0 C65.05,0 65.05,-2.84 65.05,-2.84 C65.05,-2.84 66.63,-2.84 66.63,-2.84 C67.61,-2.84 68.13,-3.37 68.21,-4.42 C68.21,-4.42 68.21,-6 68.21,-6 C68.13,-7.05 67.61,-7.58 66.63,-7.58 C66.63,-7.58 64.42,-7.58 64.42,-7.58z M66.63,-3.47 C66.63,-3.47 65.05,-3.47 65.05,-3.47 C65.05,-3.47 65.05,-6.95 65.05,-6.95 C65.05,-6.95 66.63,-6.95 66.63,-6.95 C67.26,-6.91 67.58,-6.59 67.58,-6 C67.58,-6 67.58,-4.42 67.58,-4.42 C67.58,-3.83 67.26,-3.52 66.63,-3.47z M90.31,-7.58 C90.31,-7.58 90.31,1.26 90.31,1.26 C90.31,1.26 92.84,1.26 92.84,1.26 C92.84,1.26 92.84,0.63 92.84,0.63 C92.84,0.63 90.94,0.63 90.94,0.63 C90.94,0.63 90.94,-6.95 90.94,-6.95 C90.94,-6.95 92.84,-6.95 92.84,-6.95 C92.84,-6.95 92.84,-7.58 92.84,-7.58 C92.84,-7.58 90.31,-7.58 90.31,-7.58z M115.58,-6.95 C115.58,-6.95 117.47,-6.95 117.47,-6.95 C117.47,-6.95 117.47,0.63 117.47,0.63 C117.47,0.63 115.58,0.63 115.58,0.63 C115.58,0.63 115.58,1.26 115.58,1.26 C115.58,1.26 118.1,1.26 118.1,1.26 C118.1,1.26 118.1,-7.58 118.1,-7.58 C118.1,-7.58 115.58,-7.58 115.58,-7.58 C115.58,-7.58 115.58,-6.95 115.58,-6.95z M152.84,-7.58 C152.84,-7.58 152.84,0 152.84,0 C152.84,0 155.05,0 155.05,0 C156.03,0 156.55,-0.53 156.63,-1.58 C156.63,-1.58 156.63,-6 156.63,-6 C156.55,-7.05 156.03,-7.58 155.05,-7.58 C155.05,-7.58 152.84,-7.58 152.84,-7.58z M155.05,-0.63 C155.05,-0.63 153.47,-0.63 153.47,-0.63 C153.47,-0.63 153.47,-6.95 153.47,-6.95 C153.47,-6.95 155.05,-6.95 155.05,-6.95 C155.68,-6.91 156,-6.59 156,-6 C156,-6 156,-1.58 156,-1.58 C156,-0.99 155.68,-0.67 155.05,-0.63z M162.63,-7.58 C162.63,-7.58 159.47,-7.58 159.47,-7.58 C159.47,-7.58 159.47,0 159.47,0 C159.47,0 162.63,0 162.63,0 C162.63,0 162.63,-0.63 162.63,-0.63 C162.63,-0.63 160.1,-0.63 160.1,-0.63 C160.1,-0.63 160.1,-3.47 160.1,-3.47 C160.1,-3.47 162.31,-3.47 162.31,-3.47 C162.31,-3.47 162.31,-4.11 162.31,-4.11 C162.31,-4.11 160.1,-4.11 160.1,-4.11 C160.1,-4.11 160.1,-6.95 160.1,-6.95 C160.1,-6.95 162.63,-6.95 162.63,-6.95 C162.63,-6.95 162.63,-7.58 162.63,-7.58z M166.73,-7.58 C166.73,-7.58 166.1,-7.58 166.1,-7.58 C166.1,-7.58 166.1,0 166.1,0 C166.1,0 169.26,0 169.26,0 C169.26,0 169.26,-0.63 169.26,-0.63 C169.26,-0.63 166.73,-0.63 166.73,-0.63 C166.73,-0.63 166.73,-7.58 166.73,-7.58z M175.26,-7.58 C175.26,-7.58 172.1,-7.58 172.1,-7.58 C172.1,-7.58 172.1,0 172.1,0 C172.1,0 175.26,0 175.26,0 C175.26,0 175.26,-0.63 175.26,-0.63 C175.26,-0.63 172.73,-0.63 172.73,-0.63 C172.73,-0.63 172.73,-3.47 172.73,-3.47 C172.73,-3.47 174.94,-3.47 174.94,-3.47 C174.94,-3.47 174.94,-4.11 174.94,-4.11 C174.94,-4.11 172.73,-4.11 172.73,-4.11 C172.73,-4.11 172.73,-6.95 172.73,-6.95 C172.73,-6.95 175.26,-6.95 175.26,-6.95 C175.26,-6.95 175.26,-7.58 175.26,-7.58z M177.78,-7.58 C177.78,-7.58 177.78,-6.95 177.78,-6.95 C177.78,-6.95 179.68,-6.95 179.68,-6.95 C179.68,-6.95 179.68,0 179.68,0 C179.68,0 180.31,0 180.31,0 C180.31,0 180.31,-6.95 180.31,-6.95 C180.31,-6.95 182.21,-6.95 182.21,-6.95 C182.21,-6.95 182.21,-7.58 182.21,-7.58 C182.21,-7.58 177.78,-7.58 177.78,-7.58z M187.89,-7.58 C187.89,-7.58 184.73,-7.58 184.73,-7.58 C184.73,-7.58 184.73,0 184.73,0 C184.73,0 187.89,0 187.89,0 C187.89,0 187.89,-0.63 187.89,-0.63 C187.89,-0.63 185.36,-0.63 185.36,-0.63 C185.36,-0.63 185.36,-3.47 185.36,-3.47 C185.36,-3.47 187.57,-3.47 187.57,-3.47 C187.57,-3.47 187.57,-4.11 187.57,-4.11 C187.57,-4.11 185.36,-4.11 185.36,-4.11 C185.36,-4.11 185.36,-6.95 185.36,-6.95 C185.36,-6.95 187.89,-6.95 187.89,-6.95 C187.89,-6.95 187.89,-7.58 187.89,-7.58z" style="display: inherit;"></path>
    </g>
    <g id="caps" fill="rgb(1,255,252)" font-size="12" font-family="Audimat Mono" font-style="normal" font-weight="200" aria-label="CAPS     A   S   D   F   G   H   J   K   L   :     ENTER" transform="matrix(1,0,0,1,213.1580047607422,98.78900146484375)" opacity="1">
        <path stroke-linecap="butt" stroke-linejoin="round" stroke-miterlimit="4" d=" M-171.78,-6 C-171.86,-7.05 -172.38,-7.58 -173.36,-7.58 C-173.36,-7.58 -173.99,-7.58 -173.99,-7.58 C-174.97,-7.58 -175.5,-7.05 -175.57,-6 C-175.57,-6 -175.57,-1.58 -175.57,-1.58 C-175.5,-0.53 -174.97,0 -173.99,0 C-173.99,0 -173.36,0 -173.36,0 C-172.38,0 -171.86,-0.53 -171.78,-1.58 C-171.78,-1.58 -171.78,-2.21 -171.78,-2.21 C-171.78,-2.21 -172.42,-2.21 -172.42,-2.21 C-172.42,-2.21 -172.42,-1.58 -172.42,-1.58 C-172.42,-0.99 -172.73,-0.67 -173.36,-0.63 C-173.36,-0.63 -173.99,-0.63 -173.99,-0.63 C-174.58,-0.63 -174.9,-0.95 -174.94,-1.58 C-174.94,-1.58 -174.94,-6 -174.94,-6 C-174.9,-6.63 -174.58,-6.95 -173.99,-6.95 C-173.99,-6.95 -173.36,-6.95 -173.36,-6.95 C-172.73,-6.91 -172.42,-6.59 -172.42,-6 C-172.42,-6 -172.42,-5.37 -172.42,-5.37 C-172.42,-5.37 -171.78,-5.37 -171.78,-5.37 C-171.78,-5.37 -171.78,-6 -171.78,-6z M-166.48,-2.53 C-166.48,-2.53 -166.1,-0.63 -166.1,-0.63 C-166.1,-0.63 -166.1,0 -166.1,0 C-166.1,0 -165.47,0 -165.47,0 C-165.47,0 -165.47,-0.63 -165.47,-0.63 C-165.47,-0.63 -167.05,-7.58 -167.05,-7.58 C-167.05,-7.58 -167.68,-7.58 -167.68,-7.58 C-167.68,-7.58 -169.26,-0.63 -169.26,-0.63 C-169.26,-0.63 -169.26,0 -169.26,0 C-169.26,0 -168.63,0 -168.63,0 C-168.63,0 -168.63,-0.63 -168.63,-0.63 C-168.63,-0.63 -168.25,-2.53 -168.25,-2.53 C-168.25,-2.53 -166.48,-2.53 -166.48,-2.53z M-168.12,-3.16 C-168.12,-3.16 -167.36,-6.95 -167.36,-6.95 C-167.36,-6.95 -166.61,-3.16 -166.61,-3.16 C-166.61,-3.16 -168.12,-3.16 -168.12,-3.16z M-162.94,-7.58 C-162.94,-7.58 -162.94,0 -162.94,0 C-162.94,0 -162.31,0 -162.31,0 C-162.31,0 -162.31,-2.84 -162.31,-2.84 C-162.31,-2.84 -160.73,-2.84 -160.73,-2.84 C-159.75,-2.84 -159.23,-3.37 -159.15,-4.42 C-159.15,-4.42 -159.15,-6 -159.15,-6 C-159.23,-7.05 -159.75,-7.58 -160.73,-7.58 C-160.73,-7.58 -162.94,-7.58 -162.94,-7.58z M-160.73,-3.47 C-160.73,-3.47 -162.31,-3.47 -162.31,-3.47 C-162.31,-3.47 -162.31,-6.95 -162.31,-6.95 C-162.31,-6.95 -160.73,-6.95 -160.73,-6.95 C-160.1,-6.91 -159.78,-6.59 -159.78,-6 C-159.78,-6 -159.78,-4.42 -159.78,-4.42 C-159.78,-3.83 -160.1,-3.52 -160.73,-3.47z M-154.42,-3.47 C-153.78,-3.43 -153.47,-3.12 -153.47,-2.53 C-153.47,-2.53 -153.47,-1.58 -153.47,-1.58 C-153.51,-0.95 -153.83,-0.63 -154.42,-0.63 C-154.42,-0.63 -155.05,-0.63 -155.05,-0.63 C-155.68,-0.67 -156,-0.99 -156,-1.58 C-156,-1.58 -156,-2.21 -156,-2.21 C-156,-2.21 -156.63,-2.21 -156.63,-2.21 C-156.63,-2.21 -156.63,-1.58 -156.63,-1.58 C-156.55,-0.53 -156.03,0 -155.05,0 C-155.05,0 -154.42,0 -154.42,0 C-153.44,0 -152.91,-0.53 -152.84,-1.58 C-152.84,-1.58 -152.84,-2.53 -152.84,-2.53 C-152.91,-3.58 -153.44,-4.11 -154.42,-4.11 C-154.42,-4.11 -155.05,-4.11 -155.05,-4.11 C-155.64,-4.11 -155.95,-4.42 -156,-5.05 C-156,-5.05 -156,-6 -156,-6 C-155.95,-6.63 -155.64,-6.95 -155.05,-6.95 C-155.05,-6.95 -154.42,-6.95 -154.42,-6.95 C-153.78,-6.91 -153.47,-6.59 -153.47,-6 C-153.47,-6 -153.47,-5.37 -153.47,-5.37 C-153.47,-5.37 -152.84,-5.37 -152.84,-5.37 C-152.84,-5.37 -152.84,-6 -152.84,-6 C-152.91,-7.05 -153.44,-7.58 -154.42,-7.58 C-154.42,-7.58 -155.05,-7.58 -155.05,-7.58 C-156.03,-7.58 -156.55,-7.05 -156.63,-6 C-156.63,-6 -156.63,-5.05 -156.63,-5.05 C-156.63,-4.07 -156.1,-3.55 -155.05,-3.47 C-155.05,-3.47 -154.42,-3.47 -154.42,-3.47z M-115.95,-2.53 C-115.95,-2.53 -115.58,-0.63 -115.58,-0.63 C-115.58,-0.63 -115.58,0 -115.58,0 C-115.58,0 -114.94,0 -114.94,0 C-114.94,0 -114.94,-0.63 -114.94,-0.63 C-114.94,-0.63 -116.52,-7.58 -116.52,-7.58 C-116.52,-7.58 -117.15,-7.58 -117.15,-7.58 C-117.15,-7.58 -118.73,-0.63 -118.73,-0.63 C-118.73,-0.63 -118.73,0 -118.73,0 C-118.73,0 -118.1,0 -118.1,0 C-118.1,0 -118.1,-0.63 -118.1,-0.63 C-118.1,-0.63 -117.72,-2.53 -117.72,-2.53 C-117.72,-2.53 -115.95,-2.53 -115.95,-2.53z M-117.6,-3.16 C-117.6,-3.16 -116.84,-6.95 -116.84,-6.95 C-116.84,-6.95 -116.08,-3.16 -116.08,-3.16 C-116.08,-3.16 -117.6,-3.16 -117.6,-3.16z M-91.26,-3.47 C-90.63,-3.43 -90.31,-3.12 -90.31,-2.53 C-90.31,-2.53 -90.31,-1.58 -90.31,-1.58 C-90.36,-0.95 -90.67,-0.63 -91.26,-0.63 C-91.26,-0.63 -91.89,-0.63 -91.89,-0.63 C-92.52,-0.67 -92.84,-0.99 -92.84,-1.58 C-92.84,-1.58 -92.84,-2.21 -92.84,-2.21 C-92.84,-2.21 -93.47,-2.21 -93.47,-2.21 C-93.47,-2.21 -93.47,-1.58 -93.47,-1.58 C-93.4,-0.53 -92.87,0 -91.89,0 C-91.89,0 -91.26,0 -91.26,0 C-90.28,0 -89.76,-0.53 -89.68,-1.58 C-89.68,-1.58 -89.68,-2.53 -89.68,-2.53 C-89.76,-3.58 -90.28,-4.11 -91.26,-4.11 C-91.26,-4.11 -91.89,-4.11 -91.89,-4.11 C-92.48,-4.11 -92.8,-4.42 -92.84,-5.05 C-92.84,-5.05 -92.84,-6 -92.84,-6 C-92.8,-6.63 -92.48,-6.95 -91.89,-6.95 C-91.89,-6.95 -91.26,-6.95 -91.26,-6.95 C-90.63,-6.91 -90.31,-6.59 -90.31,-6 C-90.31,-6 -90.31,-5.37 -90.31,-5.37 C-90.31,-5.37 -89.68,-5.37 -89.68,-5.37 C-89.68,-5.37 -89.68,-6 -89.68,-6 C-89.76,-7.05 -90.28,-7.58 -91.26,-7.58 C-91.26,-7.58 -91.89,-7.58 -91.89,-7.58 C-92.87,-7.58 -93.4,-7.05 -93.47,-6 C-93.47,-6 -93.47,-5.05 -93.47,-5.05 C-93.47,-4.07 -92.94,-3.55 -91.89,-3.47 C-91.89,-3.47 -91.26,-3.47 -91.26,-3.47z M-68.21,-7.58 C-68.21,-7.58 -68.21,0 -68.21,0 C-68.21,0 -66,0 -66,0 C-65.02,0 -64.49,-0.53 -64.42,-1.58 C-64.42,-1.58 -64.42,-6 -64.42,-6 C-64.49,-7.05 -65.02,-7.58 -66,-7.58 C-66,-7.58 -68.21,-7.58 -68.21,-7.58z M-66,-0.63 C-66,-0.63 -67.58,-0.63 -67.58,-0.63 C-67.58,-0.63 -67.58,-6.95 -67.58,-6.95 C-67.58,-6.95 -66,-6.95 -66,-6.95 C-65.37,-6.91 -65.05,-6.59 -65.05,-6 C-65.05,-6 -65.05,-1.58 -65.05,-1.58 C-65.05,-0.99 -65.37,-0.67 -66,-0.63z M-39.47,-7.58 C-39.47,-7.58 -42.63,-7.58 -42.63,-7.58 C-42.63,-7.58 -42.63,0 -42.63,0 C-42.63,0 -42,0 -42,0 C-42,0 -42,-3.47 -42,-3.47 C-42,-3.47 -39.79,-3.47 -39.79,-3.47 C-39.79,-3.47 -39.79,-4.11 -39.79,-4.11 C-39.79,-4.11 -42,-4.11 -42,-4.11 C-42,-4.11 -42,-6.95 -42,-6.95 C-42,-6.95 -39.47,-6.95 -39.47,-6.95 C-39.47,-6.95 -39.47,-7.58 -39.47,-7.58z M-15.79,-3.79 C-15.79,-3.79 -15.79,-3.16 -15.79,-3.16 C-15.79,-3.16 -14.53,-3.16 -14.53,-3.16 C-14.53,-3.16 -14.53,-1.58 -14.53,-1.58 C-14.53,-0.99 -14.84,-0.67 -15.47,-0.63 C-15.47,-0.63 -16.1,-0.63 -16.1,-0.63 C-16.69,-0.63 -17.01,-0.95 -17.05,-1.58 C-17.05,-1.58 -17.05,-6 -17.05,-6 C-17.01,-6.63 -16.69,-6.95 -16.1,-6.95 C-16.1,-6.95 -15.47,-6.95 -15.47,-6.95 C-14.84,-6.91 -14.53,-6.59 -14.53,-6 C-14.53,-6 -14.53,-5.37 -14.53,-5.37 C-14.53,-5.37 -13.89,-5.37 -13.89,-5.37 C-13.89,-5.37 -13.89,-6 -13.89,-6 C-13.97,-7.05 -14.49,-7.58 -15.47,-7.58 C-15.47,-7.58 -16.1,-7.58 -16.1,-7.58 C-17.08,-7.58 -17.61,-7.05 -17.68,-6 C-17.68,-6 -17.68,-1.58 -17.68,-1.58 C-17.61,-0.53 -17.08,0 -16.1,0 C-16.1,0 -15.47,0 -15.47,0 C-14.49,0 -13.97,-0.53 -13.89,-1.58 C-13.89,-1.58 -13.89,-3.79 -13.89,-3.79 C-13.89,-3.79 -15.79,-3.79 -15.79,-3.79z M10.74,-4.11 C10.74,-4.11 8.21,-4.11 8.21,-4.11 C8.21,-4.11 8.21,-7.58 8.21,-7.58 C8.21,-7.58 7.58,-7.58 7.58,-7.58 C7.58,-7.58 7.58,0 7.58,0 C7.58,0 8.21,0 8.21,0 C8.21,0 8.21,-3.47 8.21,-3.47 C8.21,-3.47 10.74,-3.47 10.74,-3.47 C10.74,-3.47 10.74,0 10.74,0 C10.74,0 11.37,0 11.37,0 C11.37,0 11.37,-7.58 11.37,-7.58 C11.37,-7.58 10.74,-7.58 10.74,-7.58 C10.74,-7.58 10.74,-4.11 10.74,-4.11z M33.16,-7.58 C33.16,-7.58 33.16,-6.95 33.16,-6.95 C33.16,-6.95 36,-6.95 36,-6.95 C36,-6.95 36,-1.58 36,-1.58 C35.96,-0.95 35.64,-0.63 35.05,-0.63 C35.05,-0.63 34.42,-0.63 34.42,-0.63 C33.79,-0.67 33.47,-0.99 33.47,-1.58 C33.47,-1.58 33.47,-2.21 33.47,-2.21 C33.47,-2.21 32.84,-2.21 32.84,-2.21 C32.84,-2.21 32.84,-1.58 32.84,-1.58 C32.91,-0.53 33.44,0 34.42,0 C34.42,0 35.05,0 35.05,0 C36.03,0 36.56,-0.53 36.63,-1.58 C36.63,-1.58 36.63,-7.58 36.63,-7.58 C36.63,-7.58 33.16,-7.58 33.16,-7.58z M61.32,-3.77 C61.09,-3.94 60.81,-4.05 60.47,-4.09 C60.47,-4.09 61.89,-6.95 61.89,-6.95 C61.89,-6.95 61.89,-7.58 61.89,-7.58 C61.89,-7.58 61.26,-7.58 61.26,-7.58 C61.26,-7.58 61.26,-6.95 61.26,-6.95 C61.26,-6.95 59.83,-4.11 59.83,-4.11 C59.83,-4.11 58.74,-4.11 58.74,-4.11 C58.74,-4.11 58.74,-7.58 58.74,-7.58 C58.74,-7.58 58.1,-7.58 58.1,-7.58 C58.1,-7.58 58.1,0 58.1,0 C58.1,0 58.74,0 58.74,0 C58.74,0 58.74,-3.47 58.74,-3.47 C58.74,-3.47 60.31,-3.47 60.31,-3.47 C60.95,-3.43 61.26,-3.12 61.26,-2.53 C61.26,-2.53 61.26,0 61.26,0 C61.26,0 61.89,0 61.89,0 C61.89,0 61.89,-2.53 61.89,-2.53 C61.89,-3.07 61.7,-3.49 61.32,-3.77z M84.63,-7.58 C84.63,-7.58 84,-7.58 84,-7.58 C84,-7.58 84,0 84,0 C84,0 87.16,0 87.16,0 C87.16,0 87.16,-0.63 87.16,-0.63 C87.16,-0.63 84.63,-0.63 84.63,-0.63 C84.63,-0.63 84.63,-7.58 84.63,-7.58z M109.91,-0.95 C109.91,-0.95 109.91,0 109.91,0 C109.91,0 110.85,0 110.85,0 C110.85,0 110.85,-0.95 110.85,-0.95 C110.85,-0.95 109.91,-0.95 109.91,-0.95z M109.91,-5.68 C109.91,-5.68 109.91,-4.74 109.91,-4.74 C109.91,-4.74 110.85,-4.74 110.85,-4.74 C110.85,-4.74 110.85,-5.68 110.85,-5.68 C110.85,-5.68 109.91,-5.68 109.91,-5.68z M150,-7.58 C150,-7.58 146.84,-7.58 146.84,-7.58 C146.84,-7.58 146.84,0 146.84,0 C146.84,0 150,0 150,0 C150,0 150,-0.63 150,-0.63 C150,-0.63 147.47,-0.63 147.47,-0.63 C147.47,-0.63 147.47,-3.47 147.47,-3.47 C147.47,-3.47 149.68,-3.47 149.68,-3.47 C149.68,-3.47 149.68,-4.11 149.68,-4.11 C149.68,-4.11 147.47,-4.11 147.47,-4.11 C147.47,-4.11 147.47,-6.95 147.47,-6.95 C147.47,-6.95 150,-6.95 150,-6.95 C150,-6.95 150,-7.58 150,-7.58z M156,-1.89 C156,-1.89 153.47,-6.95 153.47,-6.95 C153.47,-6.95 153.47,-7.58 153.47,-7.58 C153.47,-7.58 152.84,-7.58 152.84,-7.58 C152.84,-7.58 152.84,0 152.84,0 C152.84,0 153.47,0 153.47,0 C153.47,0 153.47,-5.68 153.47,-5.68 C153.47,-5.68 156,-0.62 156,-0.62 C156,-0.62 156,0 156,0 C156,0 156.63,0 156.63,0 C156.63,0 156.63,-7.58 156.63,-7.58 C156.63,-7.58 156,-7.58 156,-7.58 C156,-7.58 156,-1.89 156,-1.89z M158.84,-7.58 C158.84,-7.58 158.84,-6.95 158.84,-6.95 C158.84,-6.95 160.73,-6.95 160.73,-6.95 C160.73,-6.95 160.73,0 160.73,0 C160.73,0 161.36,0 161.36,0 C161.36,0 161.36,-6.95 161.36,-6.95 C161.36,-6.95 163.26,-6.95 163.26,-6.95 C163.26,-6.95 163.26,-7.58 163.26,-7.58 C163.26,-7.58 158.84,-7.58 158.84,-7.58z M168.94,-7.58 C168.94,-7.58 165.78,-7.58 165.78,-7.58 C165.78,-7.58 165.78,0 165.78,0 C165.78,0 168.94,0 168.94,0 C168.94,0 168.94,-0.63 168.94,-0.63 C168.94,-0.63 166.42,-0.63 166.42,-0.63 C166.42,-0.63 166.42,-3.47 166.42,-3.47 C166.42,-3.47 168.63,-3.47 168.63,-3.47 C168.63,-3.47 168.63,-4.11 168.63,-4.11 C168.63,-4.11 166.42,-4.11 166.42,-4.11 C166.42,-4.11 166.42,-6.95 166.42,-6.95 C166.42,-6.95 168.94,-6.95 168.94,-6.95 C168.94,-6.95 168.94,-7.58 168.94,-7.58z M175.57,-6 C175.5,-7.05 174.97,-7.58 173.99,-7.58 C173.99,-7.58 171.78,-7.58 171.78,-7.58 C171.78,-7.58 171.78,0 171.78,0 C171.78,0 172.42,0 172.42,0 C172.42,0 172.42,-3.47 172.42,-3.47 C172.42,-3.47 173.53,-3.47 173.53,-3.47 C173.53,-3.47 174.94,-0.66 174.94,-0.66 C174.94,-0.66 174.94,0 174.94,0 C174.94,0 175.57,0 175.57,0 C175.57,0 175.57,-0.63 175.57,-0.63 C175.57,-0.63 174.15,-3.49 174.15,-3.49 C174.49,-3.53 174.77,-3.64 175.01,-3.81 C175.38,-4.09 175.57,-4.51 175.57,-5.05 C175.57,-5.05 175.57,-6 175.57,-6z M173.99,-4.11 C173.99,-4.11 172.42,-4.11 172.42,-4.11 C172.42,-4.11 172.42,-6.95 172.42,-6.95 C172.42,-6.95 173.99,-6.95 173.99,-6.95 C174.63,-6.91 174.94,-6.59 174.94,-6 C174.94,-6 174.94,-5.05 174.94,-5.05 C174.94,-4.46 174.63,-4.15 173.99,-4.11z" style="display: inherit;"></path>
    </g>
    <g id="shift" fill="rgb(1,255,252)" font-size="12" font-family="Audimat Mono" font-style="normal" font-weight="200" aria-label="" transform="matrix(1,0,0,1,213.1580047607422,125.78900146484375)" opacity="1">
        <path stroke-linecap="butt" stroke-linejoin="round" stroke-miterlimit="4" d=" M-163.89,-3.47 C-163.26,-3.43 -162.94,-3.12 -162.94,-2.53 C-162.94,-2.53 -162.94,-1.58 -162.94,-1.58 C-162.98,-0.95 -163.3,-0.63 -163.89,-0.63 C-163.89,-0.63 -164.52,-0.63 -164.52,-0.63 C-165.15,-0.67 -165.47,-0.99 -165.47,-1.58 C-165.47,-1.58 -165.47,-2.21 -165.47,-2.21 C-165.47,-2.21 -166.1,-2.21 -166.1,-2.21 C-166.1,-2.21 -166.1,-1.58 -166.1,-1.58 C-166.03,-0.53 -165.5,0 -164.52,0 C-164.52,0 -163.89,0 -163.89,0 C-162.91,0 -162.38,-0.53 -162.31,-1.58 C-162.31,-1.58 -162.31,-2.53 -162.31,-2.53 C-162.38,-3.58 -162.91,-4.11 -163.89,-4.11 C-163.89,-4.11 -164.52,-4.11 -164.52,-4.11 C-165.11,-4.11 -165.43,-4.42 -165.47,-5.05 C-165.47,-5.05 -165.47,-6 -165.47,-6 C-165.43,-6.63 -165.11,-6.95 -164.52,-6.95 C-164.52,-6.95 -163.89,-6.95 -163.89,-6.95 C-163.26,-6.91 -162.94,-6.59 -162.94,-6 C-162.94,-6 -162.94,-5.37 -162.94,-5.37 C-162.94,-5.37 -162.31,-5.37 -162.31,-5.37 C-162.31,-5.37 -162.31,-6 -162.31,-6 C-162.38,-7.05 -162.91,-7.58 -163.89,-7.58 C-163.89,-7.58 -164.52,-7.58 -164.52,-7.58 C-165.5,-7.58 -166.03,-7.05 -166.1,-6 C-166.1,-6 -166.1,-5.05 -166.1,-5.05 C-166.1,-4.07 -165.57,-3.55 -164.52,-3.47 C-164.52,-3.47 -163.89,-3.47 -163.89,-3.47z M-156.63,-4.11 C-156.63,-4.11 -159.15,-4.11 -159.15,-4.11 C-159.15,-4.11 -159.15,-7.58 -159.15,-7.58 C-159.15,-7.58 -159.78,-7.58 -159.78,-7.58 C-159.78,-7.58 -159.78,0 -159.78,0 C-159.78,0 -159.15,0 -159.15,0 C-159.15,0 -159.15,-3.47 -159.15,-3.47 C-159.15,-3.47 -156.63,-3.47 -156.63,-3.47 C-156.63,-3.47 -156.63,0 -156.63,0 C-156.63,0 -156,0 -156,0 C-156,0 -156,-7.58 -156,-7.58 C-156,-7.58 -156.63,-7.58 -156.63,-7.58 C-156.63,-7.58 -156.63,-4.11 -156.63,-4.11z M-150,-7.58 C-150,-7.58 -153.15,-7.58 -153.15,-7.58 C-153.15,-7.58 -153.15,-6.95 -153.15,-6.95 C-153.15,-6.95 -151.89,-6.95 -151.89,-6.95 C-151.89,-6.95 -151.89,-0.63 -151.89,-0.63 C-151.89,-0.63 -153.15,-0.63 -153.15,-0.63 C-153.15,-0.63 -153.15,0 -153.15,0 C-153.15,0 -150,0 -150,0 C-150,0 -150,-0.63 -150,-0.63 C-150,-0.63 -151.26,-0.63 -151.26,-0.63 C-151.26,-0.63 -151.26,-6.95 -151.26,-6.95 C-151.26,-6.95 -150,-6.95 -150,-6.95 C-150,-6.95 -150,-7.58 -150,-7.58z M-143.68,-7.58 C-143.68,-7.58 -146.84,-7.58 -146.84,-7.58 C-146.84,-7.58 -146.84,0 -146.84,0 C-146.84,0 -146.21,0 -146.21,0 C-146.21,0 -146.21,-3.47 -146.21,-3.47 C-146.21,-3.47 -144,-3.47 -144,-3.47 C-144,-3.47 -144,-4.11 -144,-4.11 C-144,-4.11 -146.21,-4.11 -146.21,-4.11 C-146.21,-4.11 -146.21,-6.95 -146.21,-6.95 C-146.21,-6.95 -143.68,-6.95 -143.68,-6.95 C-143.68,-6.95 -143.68,-7.58 -143.68,-7.58z M-141.15,-7.58 C-141.15,-7.58 -141.15,-6.95 -141.15,-6.95 C-141.15,-6.95 -139.26,-6.95 -139.26,-6.95 C-139.26,-6.95 -139.26,0 -139.26,0 C-139.26,0 -138.63,0 -138.63,0 C-138.63,0 -138.63,-6.95 -138.63,-6.95 C-138.63,-6.95 -136.73,-6.95 -136.73,-6.95 C-136.73,-6.95 -136.73,-7.58 -136.73,-7.58 C-136.73,-7.58 -141.15,-7.58 -141.15,-7.58z M-99.79,-6.95 C-99.79,-6.95 -102.94,-0.64 -102.94,-0.64 C-102.94,-0.64 -102.94,0 -102.94,0 C-102.94,0 -99.15,0 -99.15,0 C-99.15,0 -99.15,-0.63 -99.15,-0.63 C-99.15,-0.63 -102.31,-0.63 -102.31,-0.63 C-102.31,-0.63 -99.15,-6.95 -99.15,-6.95 C-99.15,-6.95 -99.15,-7.58 -99.15,-7.58 C-99.15,-7.58 -102.94,-7.58 -102.94,-7.58 C-102.94,-7.58 -102.94,-6.95 -102.94,-6.95 C-102.94,-6.95 -99.79,-6.95 -99.79,-6.95z M-74.52,-7.58 C-74.52,-7.58 -74.52,-6.96 -74.52,-6.96 C-74.52,-6.96 -75.8,-4.11 -75.8,-4.11 C-75.8,-4.11 -77.05,-6.93 -77.05,-6.93 C-77.05,-6.93 -77.05,-7.58 -77.05,-7.58 C-77.05,-7.58 -77.68,-7.58 -77.68,-7.58 C-77.68,-7.58 -77.68,-6.95 -77.68,-6.95 C-77.68,-6.95 -76.28,-3.79 -76.28,-3.79 C-76.28,-3.79 -77.68,-0.63 -77.68,-0.63 C-77.68,-0.63 -77.68,0 -77.68,0 C-77.68,0 -77.05,0 -77.05,0 C-77.05,0 -77.05,-0.61 -77.05,-0.61 C-77.05,-0.61 -75.78,-3.47 -75.78,-3.47 C-75.78,-3.47 -74.52,-0.65 -74.52,-0.65 C-74.52,-0.65 -74.52,0 -74.52,0 C-74.52,0 -73.89,0 -73.89,0 C-73.89,0 -73.89,-0.63 -73.89,-0.63 C-73.89,-0.63 -75.3,-3.79 -75.3,-3.79 C-75.3,-3.79 -73.89,-6.95 -73.89,-6.95 C-73.89,-6.95 -73.89,-7.58 -73.89,-7.58 C-73.89,-7.58 -74.52,-7.58 -74.52,-7.58z M-48.63,-6 C-48.7,-7.05 -49.23,-7.58 -50.21,-7.58 C-50.21,-7.58 -50.84,-7.58 -50.84,-7.58 C-51.82,-7.58 -52.35,-7.05 -52.42,-6 C-52.42,-6 -52.42,-1.58 -52.42,-1.58 C-52.35,-0.53 -51.82,0 -50.84,0 C-50.84,0 -50.21,0 -50.21,0 C-49.23,0 -48.7,-0.53 -48.63,-1.58 C-48.63,-1.58 -48.63,-2.21 -48.63,-2.21 C-48.63,-2.21 -49.26,-2.21 -49.26,-2.21 C-49.26,-2.21 -49.26,-1.58 -49.26,-1.58 C-49.26,-0.99 -49.58,-0.67 -50.21,-0.63 C-50.21,-0.63 -50.84,-0.63 -50.84,-0.63 C-51.43,-0.63 -51.75,-0.95 -51.79,-1.58 C-51.79,-1.58 -51.79,-6 -51.79,-6 C-51.75,-6.63 -51.43,-6.95 -50.84,-6.95 C-50.84,-6.95 -50.21,-6.95 -50.21,-6.95 C-49.58,-6.91 -49.26,-6.59 -49.26,-6 C-49.26,-6 -49.26,-5.37 -49.26,-5.37 C-49.26,-5.37 -48.63,-5.37 -48.63,-5.37 C-48.63,-5.37 -48.63,-6 -48.63,-6z M-23.37,-7.58 C-23.37,-7.58 -24,-7.58 -24,-7.58 C-24,-7.58 -24,-6.95 -24,-6.95 C-24,-6.95 -25.26,-0.63 -25.26,-0.63 C-25.26,-0.63 -26.53,-6.95 -26.53,-6.95 C-26.53,-6.95 -26.53,-7.58 -26.53,-7.58 C-26.53,-7.58 -27.16,-7.58 -27.16,-7.58 C-27.16,-7.58 -27.16,-6.95 -27.16,-6.95 C-27.16,-6.95 -25.58,0 -25.58,0 C-25.58,0 -24.95,0 -24.95,0 C-24.95,0 -23.37,-6.95 -23.37,-6.95 C-23.37,-6.95 -23.37,-7.58 -23.37,-7.58z M1.58,-5.05 C1.58,-5.05 1.58,-6 1.58,-6 C1.51,-7.05 0.98,-7.58 0,-7.58 C0,-7.58 -1.89,-7.58 -1.89,-7.58 C-1.89,-7.58 -1.89,0 -1.89,0 C-1.89,0 0.32,0 0.32,0 C1.29,0 1.82,-0.53 1.89,-1.58 C1.89,-1.58 1.89,-2.53 1.89,-2.53 C1.89,-3.19 1.61,-3.67 1.03,-3.96 C1.39,-4.24 1.58,-4.6 1.58,-5.05z M0,-6.95 C0.63,-6.91 0.95,-6.59 0.95,-6 C0.95,-6 0.95,-5.05 0.95,-5.05 C0.95,-4.46 0.63,-4.15 0,-4.11 C0,-4.11 -1.26,-4.11 -1.26,-4.11 C-1.26,-4.11 -1.26,-6.95 -1.26,-6.95 C-1.26,-6.95 0,-6.95 0,-6.95z M0.32,-0.63 C0.32,-0.63 -1.26,-0.63 -1.26,-0.63 C-1.26,-0.63 -1.26,-3.47 -1.26,-3.47 C-1.26,-3.47 0.32,-3.47 0.32,-3.47 C0.95,-3.43 1.26,-3.12 1.26,-2.53 C1.26,-2.53 1.26,-1.58 1.26,-1.58 C1.26,-0.99 0.95,-0.67 0.32,-0.63z M26.53,-1.89 C26.53,-1.89 24,-6.95 24,-6.95 C24,-6.95 24,-7.58 24,-7.58 C24,-7.58 23.37,-7.58 23.37,-7.58 C23.37,-7.58 23.37,0 23.37,0 C23.37,0 24,0 24,0 C24,0 24,-5.68 24,-5.68 C24,-5.68 26.53,-0.62 26.53,-0.62 C26.53,-0.62 26.53,0 26.53,0 C26.53,0 27.16,0 27.16,0 C27.16,0 27.16,-7.58 27.16,-7.58 C27.16,-7.58 26.53,-7.58 26.53,-7.58 C26.53,-7.58 26.53,-1.89 26.53,-1.89z M50.52,-4.11 C50.52,-4.11 49.56,-7.58 49.56,-7.58 C49.56,-7.58 48.63,-7.58 48.63,-7.58 C48.63,-7.58 48.63,0 48.63,0 C48.63,0 49.26,0 49.26,0 C49.26,0 49.26,-6.95 49.26,-6.95 C49.26,-6.95 50.52,-2.53 50.52,-2.53 C50.52,-2.53 51.79,-6.95 51.79,-6.95 C51.79,-6.95 51.79,0 51.79,0 C51.79,0 52.42,0 52.42,0 C52.42,0 52.42,-7.58 52.42,-7.58 C52.42,-7.58 51.48,-7.58 51.48,-7.58 C51.48,-7.58 50.52,-4.11 50.52,-4.11z M77.68,-5.7 C77.68,-5.7 77.68,-6.32 77.68,-6.32 C77.68,-6.32 73.89,-3.16 73.89,-3.16 C73.89,-3.16 77.68,0 77.68,0 C77.68,0 77.68,-0.64 77.68,-0.64 C77.68,-0.64 74.62,-3.17 74.62,-3.17 C74.62,-3.17 77.68,-5.7 77.68,-5.7z M99.15,-0.62 C99.15,-0.62 99.15,0 99.15,0 C99.15,0 102.94,-3.16 102.94,-3.16 C102.94,-3.16 99.15,-6.32 99.15,-6.32 C99.15,-6.32 99.15,-5.68 99.15,-5.68 C99.15,-5.68 102.22,-3.15 102.22,-3.15 C102.22,-3.15 99.15,-0.62 99.15,-0.62z M139.26,-3.47 C139.89,-3.43 140.21,-3.12 140.21,-2.53 C140.21,-2.53 140.21,-1.58 140.21,-1.58 C140.16,-0.95 139.85,-0.63 139.26,-0.63 C139.26,-0.63 138.63,-0.63 138.63,-0.63 C138,-0.67 137.68,-0.99 137.68,-1.58 C137.68,-1.58 137.68,-2.21 137.68,-2.21 C137.68,-2.21 137.05,-2.21 137.05,-2.21 C137.05,-2.21 137.05,-1.58 137.05,-1.58 C137.12,-0.53 137.65,0 138.63,0 C138.63,0 139.26,0 139.26,0 C140.24,0 140.76,-0.53 140.84,-1.58 C140.84,-1.58 140.84,-2.53 140.84,-2.53 C140.76,-3.58 140.24,-4.11 139.26,-4.11 C139.26,-4.11 138.63,-4.11 138.63,-4.11 C138.04,-4.11 137.72,-4.42 137.68,-5.05 C137.68,-5.05 137.68,-6 137.68,-6 C137.72,-6.63 138.04,-6.95 138.63,-6.95 C138.63,-6.95 139.26,-6.95 139.26,-6.95 C139.89,-6.91 140.21,-6.59 140.21,-6 C140.21,-6 140.21,-5.37 140.21,-5.37 C140.21,-5.37 140.84,-5.37 140.84,-5.37 C140.84,-5.37 140.84,-6 140.84,-6 C140.76,-7.05 140.24,-7.58 139.26,-7.58 C139.26,-7.58 138.63,-7.58 138.63,-7.58 C137.65,-7.58 137.12,-7.05 137.05,-6 C137.05,-6 137.05,-5.05 137.05,-5.05 C137.05,-4.07 137.57,-3.55 138.63,-3.47 C138.63,-3.47 139.26,-3.47 139.26,-3.47z M146.52,-4.11 C146.52,-4.11 144,-4.11 144,-4.11 C144,-4.11 144,-7.58 144,-7.58 C144,-7.58 143.36,-7.58 143.36,-7.58 C143.36,-7.58 143.36,0 143.36,0 C143.36,0 144,0 144,0 C144,0 144,-3.47 144,-3.47 C144,-3.47 146.52,-3.47 146.52,-3.47 C146.52,-3.47 146.52,0 146.52,0 C146.52,0 147.15,0 147.15,0 C147.15,0 147.15,-7.58 147.15,-7.58 C147.15,-7.58 146.52,-7.58 146.52,-7.58 C146.52,-7.58 146.52,-4.11 146.52,-4.11z M153.15,-7.58 C153.15,-7.58 150,-7.58 150,-7.58 C150,-7.58 150,-6.95 150,-6.95 C150,-6.95 151.26,-6.95 151.26,-6.95 C151.26,-6.95 151.26,-0.63 151.26,-0.63 C151.26,-0.63 150,-0.63 150,-0.63 C150,-0.63 150,0 150,0 C150,0 153.15,0 153.15,0 C153.15,0 153.15,-0.63 153.15,-0.63 C153.15,-0.63 151.89,-0.63 151.89,-0.63 C151.89,-0.63 151.89,-6.95 151.89,-6.95 C151.89,-6.95 153.15,-6.95 153.15,-6.95 C153.15,-6.95 153.15,-7.58 153.15,-7.58z M159.47,-7.58 C159.47,-7.58 156.31,-7.58 156.31,-7.58 C156.31,-7.58 156.31,0 156.31,0 C156.31,0 156.94,0 156.94,0 C156.94,0 156.94,-3.47 156.94,-3.47 C156.94,-3.47 159.15,-3.47 159.15,-3.47 C159.15,-3.47 159.15,-4.11 159.15,-4.11 C159.15,-4.11 156.94,-4.11 156.94,-4.11 C156.94,-4.11 156.94,-6.95 156.94,-6.95 C156.94,-6.95 159.47,-6.95 159.47,-6.95 C159.47,-6.95 159.47,-7.58 159.47,-7.58z M162,-7.58 C162,-7.58 162,-6.95 162,-6.95 C162,-6.95 163.89,-6.95 163.89,-6.95 C163.89,-6.95 163.89,0 163.89,0 C163.89,0 164.52,0 164.52,0 C164.52,0 164.52,-6.95 164.52,-6.95 C164.52,-6.95 166.42,-6.95 166.42,-6.95 C166.42,-6.95 166.42,-7.58 166.42,-7.58 C166.42,-7.58 162,-7.58 162,-7.58z" style="display: inherit;"></path>
    </g>

    <g>
        <use href="#space1" transform="scale(1, 1) translate(213, 147)" fill="rgb(0, 200, 200)" />
        <use href="#space1" transform="translate(213, 147) scale(-1, 1)" fill="rgb(0, 200, 200)" />
    </g>
    <g>
        <use href="#space" transform="scale(1, 1) translate(213, 147)" fill="rgb(0, 50, 50)" />
        <use href="#space" transform="translate(213, 147) scale(-1, 1)" fill="rgb(0, 50, 50)" />
    </g>


    <animate href="#shift" attributeName="opacity" dur="3.04" calcMode="spline" values="0; 0; 1; 0; 1; 0; 0; 1; 0; 0; 1; 1" keyTimes="0; 0.137; 0.151; 0.164; 0.178; 0.205; 0.233; 0.26; 0.274; 0.315; 0.356; 1" keySplines="0.833 0.833 0.167 0.167; 0.833 0.833 0.167 0.167; 0.833 0.833 0.167 0.167; 0.833 0.833 0.167 0.167; 0.833 0.833 0.167 0.167; 0.833 0.833 0.167 0.167; 0.833 0.833 0.167 0.167; 0.833 0.833 0.167 0.167; 0.833 0.833 0.167 0.167; 0.833 0.833 0.167 0.167; 0.833 0.833 0.167 0.167" repeatCount="indefinite" />
    <animate href="#caps" attributeName="opacity" dur="3.04" calcMode="spline" values="0; 0; 1; 0; 1; 0; 0; 1; 0; 0; 1; 1" keyTimes="0; 0.123; 0.137; 0.151; 0.164; 0.192; 0.219; 0.247; 0.26; 0.301; 0.342; 1" keySplines="0.833 0.833 0.167 0.167; 0.833 0.833 0.167 0.167; 0.833 0.833 0.167 0.167; 0.833 0.833 0.167 0.167; 0.833 0.833 0.167 0.167; 0.833 0.833 0.167 0.167; 0.833 0.833 0.167 0.167; 0.833 0.833 0.167 0.167; 0.833 0.833 0.167 0.167; 0.833 0.833 0.167 0.167; 0.833 0.833 0.167 0.167" repeatCount="indefinite" />
    <animate href="#tab" attributeName="opacity" dur="3.04" calcMode="spline" values="0; 0; 1; 0; 1; 0; 0; 1; 0; 0; 1; 1" keyTimes="0; 0.11; 0.123; 0.137; 0.151; 0.178; 0.205; 0.233; 0.247; 0.288; 0.329; 1" keySplines="0.833 0.833 0.167 0.167; 0.833 0.833 0.167 0.167; 0.833 0.833 0.167 0.167; 0.833 0.833 0.167 0.167; 0.833 0.833 0.167 0.167; 0.833 0.833 0.167 0.167; 0.833 0.833 0.167 0.167; 0.833 0.833 0.167 0.167; 0.833 0.833 0.167 0.167; 0.833 0.833 0.167 0.167; 0.833 0.833 0.167 0.167" repeatCount="indefinite" />
    <animate href="#esc" attributeName="opacity" dur="3.04" calcMode="spline" values="0; 0; 1; 0; 1; 0; 0; 1; 0; 0; 1; 1" keyTimes="0; 0.096; 0.11; 0.123; 0.137; 0.164; 0.192; 0.219; 0.233; 0.274; 0.315; 1" keySplines="0.833 0.833 0.167 0.167; 0.833 0.833 0.167 0.167; 0.833 0.833 0.167 0.167; 0.833 0.833 0.167 0.167; 0.833 0.833 0.167 0.167; 0.833 0.833 0.167 0.167; 0.833 0.833 0.167 0.167; 0.833 0.833 0.167 0.167; 0.833 0.833 0.167 0.167; 0.833 0.833 0.167 0.167; 0.833 0.833 0.167 0.167" repeatCount="indefinite" />
    <animate href="#corners" attributeName="opacity" dur="3.04" calcMode="spline" values="0; 0; 1; 0; 1; 0; 1; 0; 1; 1" keyTimes="0; 0.164; 0.178; 0.192; 0.205; 0.233; 0.26; 0.274; 0.301; 1" keySplines="0.833 0.833 0.167 0.167; 0.833 0.833 0.167 0.167; 0.833 0.833 0.167 0.167; 0.833 0.833 0.167 0.167; 0.833 0.833 0.167 0.167; 0.833 0.833 0.167 0.167; 0.833 0.833 0.167 0.167; 0.833 0.833 0.167 0.167; 0.833 0.833 0.167 0.167" />
    <animate href="#border" attributeName="stroke-dashoffset" from="5766" to="0" dur="3s" />
    <animate href="#space1" attributeName="opacity" dur="3.04" values="0; 1; 1" keyTimes="0; 0.1; 1" />
    <animateTransform href="#space" attributeName="transform" additive="sum" type="scale" dur="3.04" values="0 1; 1 1; 0.98 1; 0.98 1; 0.98 1" keyTimes="0; 0.13; 0.20; 0.21; 1" />
    <animateTransform href="#space1" attributeName="transform" additive="sum" type="scale" dur="3.04" values="0 1; 1 1; 0.98 1; 1 1; 1 1" keyTimes="0; 0.09; 0.10; 0.15; 1" />
</svg>