<svg xmlns="http://www.w3.org/2000/svg" viewBox="0 0 2000 1000" preserveAspectRatio="xMidYMid meet">
    <defs>
        <g id="top">
            <path stroke-linecap="round" stroke-linejoin="miter" fill-opacity="0" stroke-miterlimit="10" stroke-dasharray=" 7.5 17" stroke-dashoffset="2621.390625" stroke="rgb(255,255,255)" stroke-opacity="1" stroke-width="3" d=" M-1050.5,116.87000274658203 C-1050.5,116.87000274658203 334.02899169921875,116.83399963378906 334.02899169921875,116.83399963378906 C356.3269958496094,116.83399963378906 377.2900085449219,127.45600128173828 390.47601318359375,145.43600463867188 C390.47601318359375,145.43600463867188 432.8330078125,203.19000244140625 432.8330078125,203.19000244140625" id="Group9-Path1"></path>
            <path stroke-linecap="round" stroke-linejoin="miter" fill-opacity="0" stroke-miterlimit="10" stroke-dasharray=" 0 15 14" stroke-dashoffset="2949.310791015625" stroke="rgb(253,0,45)" stroke-opacity="1" stroke-width="3" d=" M-1048.3330078125,102.5979995727539 C-1048.3330078125,102.5979995727539 359.5299987792969,102.197998046875 359.5299987792969,102.197998046875 C381.8269958496094,102.197998046875 402.7909851074219,112.81999969482422 415.97698974609375,130.8000030517578 C415.97698974609375,130.8000030517578 469.5,203.19000244140625 469.5,203.19000244140625" id="Group10-Path1"></path>
            <path stroke-linecap="round" stroke-linejoin="miter" fill-opacity="0" stroke-miterlimit="10" stroke-dasharray=" 41 64 10" stroke-dashoffset="4011.5634765625" stroke="rgb(0,218,182)" stroke-opacity="1" stroke-width="3" d=" M-1048.3330078125,87.5979995727539 C-1048.3330078125,87.5979995727539 383.4800109863281,87.697998046875 383.4800109863281,87.697998046875 C405.7770080566406,87.697998046875 426.739990234375,98.32099914550781 439.927001953125,116.3010025024414 C439.927001953125,116.3010025024414 504,203.19000244140625 504,203.19000244140625" id="Group11-Path1"></path>
            <path stroke-linecap="round" stroke-linejoin="miter" fill-opacity="0" stroke-miterlimit="10" stroke-dasharray=" 10 2.3 10" stroke-dashoffset="3746.034423828125" stroke="rgb(249,169,0)" stroke-opacity="1" stroke-width="3" d=" M-1050.3330078125,73.7020034790039 C-1050.3330078125,73.7020034790039 402.0249938964844,73.25 402.0249938964844,73.25 C424.3219909667969,73.25 445.2850036621094,83.87200164794922 458.47198486328125,101.85199737548828 C458.47198486328125,101.85199737548828 532.5,203.19000244140625 532.5,203.19000244140625" id="Group12-Path1"></path>
            <path stroke-linecap="round" stroke-linejoin="miter" fill-opacity="0" stroke-miterlimit="10" stroke-dasharray=" 14 73 10" stroke-dashoffset="2949.310791015625" stroke="rgb(255,255,255)" stroke-opacity="1" stroke-width="3" d=" M-1048.1669921875,58.7130012512207 C-1048.1669921875,58.7130012512207 421.3240051269531,58.755001068115234 421.3240051269531,58.755001068115234 C443.6210021972656,58.755001068115234 464.5840148925781,69.37799835205078 477.77099609375,87.35700225830078 C477.77099609375,87.35700225830078 562.8330078125,203.19000244140625 562.8330078125,203.19000244140625" id="Group13-Path1"></path>
            <path stroke-linecap="round" stroke-linejoin="miter" fill-opacity="0" stroke-miterlimit="10" stroke-dasharray=" 4.2 1.3 10" stroke-dashoffset="" stroke="rgb(253,0,45)" stroke-opacity="1" stroke-width="3" d=" M-1046.8330078125,43.426998138427734 C-1046.8330078125,43.426998138427734 437.5539855957031,43.11199951171875 437.5539855957031,43.11199951171875 C459.85101318359375,43.11199951171875 480.8139953613281,53.73400115966797 494,71.71399688720703 C494,71.71399688720703 590.5830078125,203.19000244140625 590.5830078125,203.19000244140625" id="Group14-Path1"></path>
            <path stroke-linecap="round" stroke-linejoin="miter" fill-opacity="0" stroke-miterlimit="10" stroke-dasharray=" 24 1.3 10" stroke="rgb(249,169,0)" stroke-opacity="1" stroke-width="3" d=" M-1048.5,26.422000885009766 C-1048.5,26.422000885009766 455.906005859375,26.20400047302246 455.906005859375,26.20400047302246 C478.2030029296875,26.20400047302246 499.1659851074219,36.82600021362305 512.35302734375,54.805999755859375 C512.35302734375,54.805999755859375 620.1669921875,201.75 620.1669921875,201.75" id="Group15-Path1"></path>
            <path stroke-linecap="round" stroke-linejoin="miter" fill-opacity="0" stroke-miterlimit="10" stroke-dasharray=" 10 17.8 9.8" stroke-dashoffset="3479.967529296875" stroke="rgb(0,218,182)" stroke-opacity="1" stroke-width="3" d=" M-1048.6669921875,5.229000091552734 C-1048.6669921875,5.229000091552734 483.593994140625,4.906000137329102 483.593994140625,4.906000137329102 C505.8909912109375,4.906000137329102 526.85400390625,15.527999877929688 540.041015625,33.507999420166016 C540.041015625,33.507999420166016 660.75,197.66700744628906 660.75,197.66700744628906" id="Group16-Path1"></path>
        </g>
        <!-- <animate href="#Group9-Path1" attributeName="stroke-dashoffset" dur="1.5" values="350; 345; 0; 0" keyTimes="0;0;1;1" repeatCount="indefinite" />
        <animate href="#Group10-Path1" attributeName="stroke-dashoffset" dur="2.4" values="350; 350; 0; 0" keyTimes="0;0;1;1" repeatCount="indefinite" />
        <animate href="#Group11-Path1" attributeName="stroke-dashoffset" dur="1.6" values="400; 460; 0; 0" keyTimes="0;0;1;1" repeatCount="indefinite" />
        <animate href="#Group12-Path1" attributeName="stroke-dashoffset" dur="2.4" values="410; 401; 0; 0" keyTimes="0;0;1;1" repeatCount="indefinite" />
        <animate href="#Group13-Path1" attributeName="stroke-dashoffset" dur="1" values="419; 388; 0; 0" keyTimes="0;0;1;1" repeatCount="indefinite" />
        <animate href="#Group14-Path1" attributeName="stroke-dashoffset" dur="3" values="434; 434; 0; 0" keyTimes="0;0;1;1" repeatCount="indefinite" />
        <animate href="#Group15-Path1" attributeName="stroke-dashoffset" dur="2" values="425; 425; 0; 0" keyTimes="0;0;1;1" repeatCount="indefinite" />
        <animate href="#Group16-Path1" attributeName="stroke-dashoffset" dur="1.8" values="0; 0; 450; 450" keyTimes="0;0;1;1" repeatCount="indefinite" />
        <animate href="#Group9-Path1" attributeName="opacity" dur="20.04" values="0; 0; 1; 1" keyTimes="0; 0.04; 0.086; 1" repeatCount="once" />
        <animate href="#Group10-Path1" attributeName="opacity" dur="20.04" values="0; 0; 1; 1" keyTimes="0; 0.05; 0.096; 1" repeatCount="once" />
        <animate href="#Group11-Path1" attributeName="opacity" dur="20.04" values="0; 0; 1; 1" keyTimes="0; 0.06; 0.106; 1" repeatCount="once" />
        <animate href="#Group12-Path1" attributeName="opacity" dur="20.04" values="0; 0; 1; 1" keyTimes="0; 0.07; 0.116; 1" repeatCount="once" />
        <animate href="#Group13-Path1" attributeName="opacity" dur="20.04" values="0; 0; 1; 1" keyTimes="0; 0.08; 0.126; 1" repeatCount="once" />
        <animate href="#Group14-Path1" attributeName="opacity" dur="20.04" values="0; 0; 1; 1" keyTimes="0; 0.09; 0.136; 1" repeatCount="once" />
        <animate href="#Group15-Path1" attributeName="opacity" dur="20.04" values="0; 0; 1; 1" keyTimes="0; 0.1; 0.146; 1" repeatCount="once" />
        <animate href="#Group16-Path1" attributeName="opacity" dur="20.04" values="0; 0; 1; 1" keyTimes="0; 0.11; 0.156; 1" repeatCount="once" /> -->
    </defs>

    <g transform="translate(-119,196)">
        <use href="#top" />
    </g>
    <g transform="translate(1040,708) scale(-1,-1)">
        <use href="#top" />
    </g>

    <!-- <g fill="rgb(255,255,255)" font-size="52" font-family="Scope One" font-style="normal" font-weight="400" aria-label="VSCODE VIM ACADEMY" transform="matrix(1,0,0,1,62.43499755859375,464.80499267578125)" opacity="1" style="display: block;">
        <path stroke-linecap="butt" stroke-linejoin="round" stroke-miterlimit="4" d=" M16.74,0.21 C17.16,0.21 17.54,0.17 17.89,0.1 C17.89,0.1 29.54,-31.25 29.54,-31.25 C29.54,-31.25 33.02,-31.67 33.02,-31.67 C33.26,-31.98 33.38,-32.33 33.38,-32.71 C33.38,-33.05 33.31,-33.33 33.18,-33.54 C33.18,-33.54 23.24,-33.54 23.24,-33.54 C23.24,-33.54 23.14,-33.12 23.14,-33.12 C22.97,-32.53 22.88,-32.12 22.88,-31.88 C22.88,-31.39 23.16,-31.15 23.71,-31.15 C23.71,-31.15 26.73,-31.15 26.73,-31.15 C26.73,-31.15 16.9,-4.26 16.9,-4.26 C16.9,-4.26 7.07,-31.25 7.07,-31.25 C7.07,-31.25 10.56,-31.67 10.56,-31.67 C10.8,-31.98 10.92,-32.33 10.92,-32.71 C10.92,-33.05 10.85,-33.33 10.71,-33.54 C10.71,-33.54 0.52,-33.54 0.52,-33.54 C0.52,-33.54 0.42,-33.12 0.42,-33.12 C0.24,-32.53 0.16,-32.12 0.16,-31.88 C0.16,-31.39 0.43,-31.15 0.99,-31.15 C0.99,-31.15 4,-31.15 4,-31.15 C4,-31.15 15.6,0.1 15.6,0.1 C15.95,0.17 16.33,0.21 16.74,0.21z" transform="matrix(1,0,0,1,0,0)" opacity="1" style="display: inherit;"></path>
        <path stroke-linecap="butt" stroke-linejoin="round" stroke-miterlimit="4" d=" M3.12,-2.34 C3.29,-2.06 3.48,-1.8 3.69,-1.56 C4.8,-0.9 6.17,-0.39 7.8,-0.03 C9.43,0.34 11.13,0.52 12.9,0.52 C16.71,0.52 19.69,-0.3 21.84,-1.95 C23.99,-3.6 25.06,-5.86 25.06,-8.74 C25.06,-11.02 24.27,-12.91 22.67,-14.4 C21.08,-15.89 18.39,-17.3 14.61,-18.62 C12.36,-19.38 10.6,-20.11 9.33,-20.8 C8.07,-21.49 7.18,-22.24 6.68,-23.04 C6.18,-23.83 5.93,-24.79 5.93,-25.9 C5.93,-27.77 6.59,-29.2 7.9,-30.19 C9.22,-31.17 11.11,-31.67 13.57,-31.67 C15.69,-31.67 17.71,-31.25 19.66,-30.42 C19.66,-30.42 21.06,-24.54 21.06,-24.54 C21.37,-24.3 21.72,-24.18 22.1,-24.18 C22.45,-24.18 22.72,-24.25 22.93,-24.39 C22.93,-24.39 22.83,-30.63 22.83,-30.63 C22.72,-30.87 22.59,-31.13 22.41,-31.41 C22.24,-31.69 22.05,-31.95 21.84,-32.19 C19.27,-33.44 16.52,-34.06 13.57,-34.06 C10.24,-34.06 7.64,-33.34 5.77,-31.9 C3.9,-30.46 2.96,-28.46 2.96,-25.9 C2.96,-24.37 3.32,-23.03 4.03,-21.87 C4.74,-20.7 5.9,-19.65 7.51,-18.69 C9.13,-17.74 11.3,-16.81 14.04,-15.91 C17.02,-14.91 19.1,-13.88 20.28,-12.82 C21.46,-11.76 22.05,-10.4 22.05,-8.74 C22.05,-6.59 21.24,-4.91 19.63,-3.72 C18.02,-2.52 15.77,-1.92 12.9,-1.92 C11.58,-1.92 10.32,-2.05 9.13,-2.29 C7.93,-2.53 6.85,-2.86 5.88,-3.28 C5.88,-3.28 4.47,-9.46 4.47,-9.46 C4.16,-9.71 3.81,-9.83 3.43,-9.83 C3.09,-9.83 2.81,-9.76 2.6,-9.62 C2.6,-9.62 2.7,-3.12 2.7,-3.12 C2.81,-2.88 2.95,-2.62 3.12,-2.34z" transform="matrix(1,0,0,1,34.52799987792969,0)" opacity="1" style="display: inherit;"></path>
        <path stroke-linecap="butt" stroke-linejoin="round" stroke-miterlimit="4" d=" M27.2,-23.56 C27.54,-23.56 27.82,-23.63 28.03,-23.76 C28.03,-23.76 27.92,-30.52 27.92,-30.52 C27.82,-30.77 27.68,-31.03 27.51,-31.3 C27.33,-31.58 27.14,-31.84 26.94,-32.08 C25.55,-32.71 24.05,-33.19 22.44,-33.54 C20.83,-33.89 19.31,-34.06 17.89,-34.06 C14.84,-34.06 12.16,-33.34 9.85,-31.9 C7.55,-30.46 5.76,-28.45 4.5,-25.87 C3.23,-23.29 2.6,-20.26 2.6,-16.8 C2.6,-13.29 3.25,-10.24 4.55,-7.64 C5.85,-5.04 7.67,-3.03 10.01,-1.61 C12.35,-0.19 15.1,0.52 18.25,0.52 C20.12,0.52 22,0.27 23.87,-0.23 C25.74,-0.74 27.32,-1.4 28.6,-2.24 C28.43,-3.03 28.1,-3.73 27.61,-4.32 C24.77,-2.86 21.81,-2.13 18.72,-2.13 C16.05,-2.13 13.74,-2.73 11.78,-3.93 C9.82,-5.12 8.31,-6.81 7.25,-9 C6.2,-11.18 5.67,-13.78 5.67,-16.8 C5.67,-19.78 6.18,-22.38 7.2,-24.6 C8.22,-26.81 9.67,-28.54 11.54,-29.77 C13.42,-31 15.6,-31.62 18.1,-31.62 C20.25,-31.62 22.45,-31.17 24.7,-30.26 C24.7,-30.26 26.16,-23.92 26.16,-23.92 C26.47,-23.68 26.81,-23.56 27.2,-23.56z" transform="matrix(1,0,0,1,61.93199920654297,0)" opacity="1" style="display: inherit;"></path>
        <path stroke-linecap="butt" stroke-linejoin="round" stroke-miterlimit="4" d=" M11.52,-3.77 C9.66,-5 8.22,-6.73 7.2,-8.94 C6.18,-11.16 5.67,-13.78 5.67,-16.8 C5.67,-19.78 6.18,-22.38 7.2,-24.6 C8.22,-26.81 9.66,-28.54 11.52,-29.77 C13.37,-31 15.55,-31.62 18.04,-31.62 C20.54,-31.62 22.72,-31 24.57,-29.77 C26.42,-28.54 27.86,-26.81 28.89,-24.6 C29.91,-22.38 30.42,-19.78 30.42,-16.8 C30.42,-13.81 29.91,-11.21 28.89,-8.97 C27.86,-6.73 26.42,-5 24.57,-3.77 C22.72,-2.54 20.54,-1.92 18.04,-1.92 C15.55,-1.92 13.37,-2.54 11.52,-3.77z M26.16,-1.64 C28.48,-3.08 30.28,-5.09 31.56,-7.67 C32.85,-10.25 33.49,-13.29 33.49,-16.8 C33.49,-20.26 32.85,-23.29 31.56,-25.87 C30.28,-28.45 28.48,-30.46 26.16,-31.9 C23.83,-33.34 21.13,-34.06 18.04,-34.06 C14.96,-34.06 12.25,-33.34 9.93,-31.9 C7.61,-30.46 5.81,-28.45 4.52,-25.87 C3.24,-23.29 2.6,-20.26 2.6,-16.8 C2.6,-13.29 3.24,-10.25 4.52,-7.67 C5.81,-5.09 7.61,-3.08 9.93,-1.64 C12.25,-0.2 14.96,0.52 18.04,0.52 C21.13,0.52 23.83,-0.2 26.16,-1.64z" transform="matrix(1,0,0,1,92.24800109863281,0)" opacity="1" style="display: inherit;"></path>
        <path stroke-linecap="butt" stroke-linejoin="round" stroke-miterlimit="4" d=" M9.41,-31.15 C9.41,-31.15 17,-31.15 17,-31.15 C19.6,-31.15 21.82,-30.55 23.66,-29.35 C25.5,-28.16 26.91,-26.49 27.9,-24.34 C28.89,-22.19 29.38,-19.67 29.38,-16.8 C29.38,-13.92 28.89,-11.4 27.9,-9.23 C26.91,-7.06 25.5,-5.38 23.66,-4.19 C21.82,-2.99 19.6,-2.39 17,-2.39 C17,-2.39 9.41,-2.39 9.41,-2.39 C9.41,-2.39 9.41,-31.15 9.41,-31.15z M25.14,-2.03 C27.45,-3.38 29.24,-5.31 30.52,-7.83 C31.81,-10.34 32.45,-13.33 32.45,-16.8 C32.45,-20.23 31.81,-23.2 30.52,-25.71 C29.24,-28.23 27.45,-30.16 25.14,-31.51 C22.84,-32.86 20.12,-33.54 17,-33.54 C17,-33.54 3.02,-33.54 3.02,-33.54 C3.02,-33.54 2.91,-33.12 2.91,-33.12 C2.74,-32.53 2.65,-32.12 2.65,-31.88 C2.65,-31.39 2.93,-31.15 3.48,-31.15 C3.48,-31.15 6.5,-31.15 6.5,-31.15 C6.5,-31.15 6.5,-2.29 6.5,-2.29 C6.5,-2.29 3.02,-1.87 3.02,-1.87 C2.77,-1.56 2.65,-1.21 2.65,-0.83 C2.65,-0.49 2.72,-0.21 2.86,0 C2.86,0 17,0 17,0 C20.12,0 22.84,-0.68 25.14,-2.03z" transform="matrix(1,0,0,1,128.33599853515625,0)" opacity="1" style="display: inherit;"></path>
        <path stroke-linecap="butt" stroke-linejoin="round" stroke-miterlimit="4" d=" M28.29,-1.35 C28.29,-1.35 28.39,-8.22 28.39,-8.22 C28.18,-8.35 27.91,-8.42 27.56,-8.42 C27.18,-8.42 26.83,-8.3 26.52,-8.06 C26.52,-8.06 25.22,-2.39 25.22,-2.39 C25.22,-2.39 9.41,-2.39 9.41,-2.39 C9.41,-2.39 9.41,-15.96 9.41,-15.96 C9.41,-15.96 19.81,-15.96 19.81,-15.96 C19.81,-15.96 20.44,-12.58 20.44,-12.58 C20.75,-12.34 21.09,-12.22 21.48,-12.22 C21.82,-12.22 22.1,-12.29 22.31,-12.43 C22.31,-12.43 22.31,-21.58 22.31,-21.58 C22.31,-21.58 22,-21.74 22,-21.74 C21.58,-21.91 21.3,-22 21.16,-22 C20.68,-22 20.38,-21.68 20.28,-21.06 C20.28,-21.06 19.81,-18.3 19.81,-18.3 C19.81,-18.3 9.41,-18.3 9.41,-18.3 C9.41,-18.3 9.41,-31.15 9.41,-31.15 C9.41,-31.15 24.7,-31.15 24.7,-31.15 C24.7,-31.15 26,-25.48 26,-25.48 C26.31,-25.24 26.66,-25.12 27.04,-25.12 C27.39,-25.12 27.66,-25.19 27.87,-25.32 C27.87,-25.32 27.77,-32.19 27.77,-32.19 C27.42,-32.71 27.01,-33.16 26.52,-33.54 C26.52,-33.54 3.02,-33.54 3.02,-33.54 C3.02,-33.54 2.91,-33.12 2.91,-33.12 C2.74,-32.53 2.65,-32.12 2.65,-31.88 C2.65,-31.39 2.93,-31.15 3.48,-31.15 C3.48,-31.15 6.5,-31.15 6.5,-31.15 C6.5,-31.15 6.5,-2.29 6.5,-2.29 C6.5,-2.29 3.02,-1.87 3.02,-1.87 C2.77,-1.56 2.65,-1.21 2.65,-0.83 C2.65,-0.49 2.72,-0.21 2.86,0 C2.86,0 27.04,0 27.04,0 C27.53,-0.38 27.94,-0.83 28.29,-1.35z" transform="matrix(1,0,0,1,163.38400268554688,0)" opacity="1" style="display: inherit;"></path>
        <path stroke-linecap="butt" stroke-linejoin="round" stroke-miterlimit="4" d="" transform="matrix(1,0,0,1,194.37600708007812,0)" opacity="1" style="display: inherit;"></path>
        <path stroke-linecap="butt" stroke-linejoin="round" stroke-miterlimit="4" d=" M16.74,0.21 C17.16,0.21 17.54,0.17 17.89,0.1 C17.89,0.1 29.54,-31.25 29.54,-31.25 C29.54,-31.25 33.02,-31.67 33.02,-31.67 C33.26,-31.98 33.38,-32.33 33.38,-32.71 C33.38,-33.05 33.31,-33.33 33.18,-33.54 C33.18,-33.54 23.24,-33.54 23.24,-33.54 C23.24,-33.54 23.14,-33.12 23.14,-33.12 C22.97,-32.53 22.88,-32.12 22.88,-31.88 C22.88,-31.39 23.16,-31.15 23.71,-31.15 C23.71,-31.15 26.73,-31.15 26.73,-31.15 C26.73,-31.15 16.9,-4.26 16.9,-4.26 C16.9,-4.26 7.07,-31.25 7.07,-31.25 C7.07,-31.25 10.56,-31.67 10.56,-31.67 C10.8,-31.98 10.92,-32.33 10.92,-32.71 C10.92,-33.05 10.85,-33.33 10.71,-33.54 C10.71,-33.54 0.52,-33.54 0.52,-33.54 C0.52,-33.54 0.42,-33.12 0.42,-33.12 C0.24,-32.53 0.16,-32.12 0.16,-31.88 C0.16,-31.39 0.43,-31.15 0.99,-31.15 C0.99,-31.15 4,-31.15 4,-31.15 C4,-31.15 15.6,0.1 15.6,0.1 C15.95,0.17 16.33,0.21 16.74,0.21z" transform="matrix(1,0,0,1,207.37600708007812,0)" opacity="1" style="display: inherit;"></path>
        <path stroke-linecap="butt" stroke-linejoin="round" stroke-miterlimit="4" d=" M13.52,-0.42 C13.69,-1.01 13.78,-1.42 13.78,-1.66 C13.78,-2.15 13.5,-2.39 12.95,-2.39 C12.95,-2.39 9.41,-2.39 9.41,-2.39 C9.41,-2.39 9.41,-31.25 9.41,-31.25 C9.41,-31.25 13.42,-31.67 13.42,-31.67 C13.66,-31.98 13.78,-32.33 13.78,-32.71 C13.78,-33.05 13.71,-33.33 13.57,-33.54 C13.57,-33.54 2.5,-33.54 2.5,-33.54 C2.5,-33.54 2.39,-33.12 2.39,-33.12 C2.22,-32.53 2.13,-32.12 2.13,-31.88 C2.13,-31.39 2.41,-31.15 2.96,-31.15 C2.96,-31.15 6.5,-31.15 6.5,-31.15 C6.5,-31.15 6.5,-2.29 6.5,-2.29 C6.5,-2.29 2.5,-1.87 2.5,-1.87 C2.25,-1.56 2.13,-1.21 2.13,-0.83 C2.13,-0.49 2.2,-0.21 2.34,0 C2.34,0 13.42,0 13.42,0 C13.42,0 13.52,-0.42 13.52,-0.42z" transform="matrix(1,0,0,1,241.90399169921875,0)" opacity="1" style="display: inherit;"></path>
        <path stroke-linecap="butt" stroke-linejoin="round" stroke-miterlimit="4" d=" M42.02,-0.42 C42.19,-1.01 42.28,-1.42 42.28,-1.66 C42.28,-2.15 42,-2.39 41.44,-2.39 C41.44,-2.39 38.43,-2.39 38.43,-2.39 C38.43,-2.39 38.43,-31.25 38.43,-31.25 C38.43,-31.25 41.91,-31.67 41.91,-31.67 C42.15,-31.98 42.28,-32.33 42.28,-32.71 C42.28,-33.05 42.21,-33.33 42.07,-33.54 C42.07,-33.54 35,-33.54 35,-33.54 C35,-33.54 22.52,-7.85 22.52,-7.85 C22.52,-7.85 9.72,-33.54 9.72,-33.54 C9.72,-33.54 3.02,-33.54 3.02,-33.54 C3.02,-33.54 2.91,-33.12 2.91,-33.12 C2.74,-32.53 2.65,-32.12 2.65,-31.88 C2.65,-31.39 2.93,-31.15 3.48,-31.15 C3.48,-31.15 6.5,-31.15 6.5,-31.15 C6.5,-31.15 6.5,-2.29 6.5,-2.29 C6.5,-2.29 3.02,-1.87 3.02,-1.87 C2.77,-1.56 2.65,-1.21 2.65,-0.83 C2.65,-0.49 2.72,-0.21 2.86,0 C2.86,0 12.69,0 12.69,0 C12.69,0 12.79,-0.42 12.79,-0.42 C12.97,-1.01 13.05,-1.42 13.05,-1.66 C13.05,-2.15 12.77,-2.39 12.22,-2.39 C12.22,-2.39 9.2,-2.39 9.2,-2.39 C9.2,-2.39 9.2,-28.34 9.2,-28.34 C9.2,-28.34 21.22,-4.16 21.22,-4.16 C21.56,-4.09 21.94,-4.06 22.36,-4.06 C22.78,-4.06 23.16,-4.09 23.5,-4.16 C23.5,-4.16 35.52,-28.96 35.52,-28.96 C35.52,-28.96 35.52,-2.29 35.52,-2.29 C35.52,-2.29 32.03,-1.87 32.03,-1.87 C31.79,-1.56 31.67,-1.21 31.67,-0.83 C31.67,-0.49 31.74,-0.21 31.88,0 C31.88,0 41.91,0 41.91,0 C41.91,0 42.02,-0.42 42.02,-0.42z" transform="matrix(1,0,0,1,257.8160095214844,0)" opacity="1" style="display: inherit;"></path>
        <path stroke-linecap="butt" stroke-linejoin="round" stroke-miterlimit="4" d="" transform="matrix(1,0,0,1,302.7439880371094,0)" opacity="1" style="display: inherit;"></path>
        <path stroke-linecap="butt" stroke-linejoin="round" stroke-miterlimit="4" d=" M34.32,-0.42 C34.49,-1.01 34.58,-1.42 34.58,-1.66 C34.58,-2.15 34.3,-2.39 33.75,-2.39 C33.75,-2.39 30.73,-2.39 30.73,-2.39 C30.73,-2.39 18.62,-33.64 18.62,-33.64 C18.27,-33.71 17.89,-33.75 17.47,-33.75 C17.06,-33.75 16.67,-33.71 16.33,-33.64 C16.33,-33.64 4.16,-2.29 4.16,-2.29 C4.16,-2.29 0.68,-1.87 0.68,-1.87 C0.43,-1.56 0.31,-1.21 0.31,-0.83 C0.31,-0.49 0.38,-0.21 0.52,0 C0.52,0 10.5,0 10.5,0 C10.5,0 10.61,-0.42 10.61,-0.42 C10.78,-1.01 10.87,-1.42 10.87,-1.66 C10.87,-2.15 10.59,-2.39 10.04,-2.39 C10.04,-2.39 7.02,-2.39 7.02,-2.39 C7.02,-2.39 10.24,-10.92 10.24,-10.92 C10.24,-10.92 24.39,-10.92 24.39,-10.92 C24.39,-10.92 27.72,-2.29 27.72,-2.29 C27.72,-2.29 24.23,-1.87 24.23,-1.87 C23.99,-1.56 23.87,-1.21 23.87,-0.83 C23.87,-0.49 23.94,-0.21 24.08,0 C24.08,0 34.22,0 34.22,0 C34.22,0 34.32,-0.42 34.32,-0.42z M11.13,-13.26 C11.13,-13.26 17.32,-29.59 17.32,-29.59 C17.32,-29.59 23.5,-13.26 23.5,-13.26 C23.5,-13.26 11.13,-13.26 11.13,-13.26z" transform="matrix(1,0,0,1,315.7440185546875,0)" opacity="1" style="display: inherit;"></path>
        <path stroke-linecap="butt" stroke-linejoin="round" stroke-miterlimit="4" d=" M27.2,-23.56 C27.54,-23.56 27.82,-23.63 28.03,-23.76 C28.03,-23.76 27.92,-30.52 27.92,-30.52 C27.82,-30.77 27.68,-31.03 27.51,-31.3 C27.33,-31.58 27.14,-31.84 26.94,-32.08 C25.55,-32.71 24.05,-33.19 22.44,-33.54 C20.83,-33.89 19.31,-34.06 17.89,-34.06 C14.84,-34.06 12.16,-33.34 9.85,-31.9 C7.55,-30.46 5.76,-28.45 4.5,-25.87 C3.23,-23.29 2.6,-20.26 2.6,-16.8 C2.6,-13.29 3.25,-10.24 4.55,-7.64 C5.85,-5.04 7.67,-3.03 10.01,-1.61 C12.35,-0.19 15.1,0.52 18.25,0.52 C20.12,0.52 22,0.27 23.87,-0.23 C25.74,-0.74 27.32,-1.4 28.6,-2.24 C28.43,-3.03 28.1,-3.73 27.61,-4.32 C24.77,-2.86 21.81,-2.13 18.72,-2.13 C16.05,-2.13 13.74,-2.73 11.78,-3.93 C9.82,-5.12 8.31,-6.81 7.25,-9 C6.2,-11.18 5.67,-13.78 5.67,-16.8 C5.67,-19.78 6.18,-22.38 7.2,-24.6 C8.22,-26.81 9.67,-28.54 11.54,-29.77 C13.42,-31 15.6,-31.62 18.1,-31.62 C20.25,-31.62 22.45,-31.17 24.7,-30.26 C24.7,-30.26 26.16,-23.92 26.16,-23.92 C26.47,-23.68 26.81,-23.56 27.2,-23.56z" transform="matrix(1,0,0,1,351.7279968261719,0)" opacity="1" style="display: inherit;"></path>
        <path stroke-linecap="butt" stroke-linejoin="round" stroke-miterlimit="4" d=" M34.32,-0.42 C34.49,-1.01 34.58,-1.42 34.58,-1.66 C34.58,-2.15 34.3,-2.39 33.75,-2.39 C33.75,-2.39 30.73,-2.39 30.73,-2.39 C30.73,-2.39 18.62,-33.64 18.62,-33.64 C18.27,-33.71 17.89,-33.75 17.47,-33.75 C17.06,-33.75 16.67,-33.71 16.33,-33.64 C16.33,-33.64 4.16,-2.29 4.16,-2.29 C4.16,-2.29 0.68,-1.87 0.68,-1.87 C0.43,-1.56 0.31,-1.21 0.31,-0.83 C0.31,-0.49 0.38,-0.21 0.52,0 C0.52,0 10.5,0 10.5,0 C10.5,0 10.61,-0.42 10.61,-0.42 C10.78,-1.01 10.87,-1.42 10.87,-1.66 C10.87,-2.15 10.59,-2.39 10.04,-2.39 C10.04,-2.39 7.02,-2.39 7.02,-2.39 C7.02,-2.39 10.24,-10.92 10.24,-10.92 C10.24,-10.92 24.39,-10.92 24.39,-10.92 C24.39,-10.92 27.72,-2.29 27.72,-2.29 C27.72,-2.29 24.23,-1.87 24.23,-1.87 C23.99,-1.56 23.87,-1.21 23.87,-0.83 C23.87,-0.49 23.94,-0.21 24.08,0 C24.08,0 34.22,0 34.22,0 C34.22,0 34.32,-0.42 34.32,-0.42z M11.13,-13.26 C11.13,-13.26 17.32,-29.59 17.32,-29.59 C17.32,-29.59 23.5,-13.26 23.5,-13.26 C23.5,-13.26 11.13,-13.26 11.13,-13.26z" transform="matrix(1,0,0,1,382.04400634765625,0)" opacity="1" style="display: inherit;"></path>
        <path stroke-linecap="butt" stroke-linejoin="round" stroke-miterlimit="4" d=" M9.41,-31.15 C9.41,-31.15 17,-31.15 17,-31.15 C19.6,-31.15 21.82,-30.55 23.66,-29.35 C25.5,-28.16 26.91,-26.49 27.9,-24.34 C28.89,-22.19 29.38,-19.67 29.38,-16.8 C29.38,-13.92 28.89,-11.4 27.9,-9.23 C26.91,-7.06 25.5,-5.38 23.66,-4.19 C21.82,-2.99 19.6,-2.39 17,-2.39 C17,-2.39 9.41,-2.39 9.41,-2.39 C9.41,-2.39 9.41,-31.15 9.41,-31.15z M25.14,-2.03 C27.45,-3.38 29.24,-5.31 30.52,-7.83 C31.81,-10.34 32.45,-13.33 32.45,-16.8 C32.45,-20.23 31.81,-23.2 30.52,-25.71 C29.24,-28.23 27.45,-30.16 25.14,-31.51 C22.84,-32.86 20.12,-33.54 17,-33.54 C17,-33.54 3.02,-33.54 3.02,-33.54 C3.02,-33.54 2.91,-33.12 2.91,-33.12 C2.74,-32.53 2.65,-32.12 2.65,-31.88 C2.65,-31.39 2.93,-31.15 3.48,-31.15 C3.48,-31.15 6.5,-31.15 6.5,-31.15 C6.5,-31.15 6.5,-2.29 6.5,-2.29 C6.5,-2.29 3.02,-1.87 3.02,-1.87 C2.77,-1.56 2.65,-1.21 2.65,-0.83 C2.65,-0.49 2.72,-0.21 2.86,0 C2.86,0 17,0 17,0 C20.12,0 22.84,-0.68 25.14,-2.03z" transform="matrix(1,0,0,1,418.0279846191406,0)" opacity="1" style="display: inherit;"></path>
        <path stroke-linecap="butt" stroke-linejoin="round" stroke-miterlimit="4" d=" M28.29,-1.35 C28.29,-1.35 28.39,-8.22 28.39,-8.22 C28.18,-8.35 27.91,-8.42 27.56,-8.42 C27.18,-8.42 26.83,-8.3 26.52,-8.06 C26.52,-8.06 25.22,-2.39 25.22,-2.39 C25.22,-2.39 9.41,-2.39 9.41,-2.39 C9.41,-2.39 9.41,-15.96 9.41,-15.96 C9.41,-15.96 19.81,-15.96 19.81,-15.96 C19.81,-15.96 20.44,-12.58 20.44,-12.58 C20.75,-12.34 21.09,-12.22 21.48,-12.22 C21.82,-12.22 22.1,-12.29 22.31,-12.43 C22.31,-12.43 22.31,-21.58 22.31,-21.58 C22.31,-21.58 22,-21.74 22,-21.74 C21.58,-21.91 21.3,-22 21.16,-22 C20.68,-22 20.38,-21.68 20.28,-21.06 C20.28,-21.06 19.81,-18.3 19.81,-18.3 C19.81,-18.3 9.41,-18.3 9.41,-18.3 C9.41,-18.3 9.41,-31.15 9.41,-31.15 C9.41,-31.15 24.7,-31.15 24.7,-31.15 C24.7,-31.15 26,-25.48 26,-25.48 C26.31,-25.24 26.66,-25.12 27.04,-25.12 C27.39,-25.12 27.66,-25.19 27.87,-25.32 C27.87,-25.32 27.77,-32.19 27.77,-32.19 C27.42,-32.71 27.01,-33.16 26.52,-33.54 C26.52,-33.54 3.02,-33.54 3.02,-33.54 C3.02,-33.54 2.91,-33.12 2.91,-33.12 C2.74,-32.53 2.65,-32.12 2.65,-31.88 C2.65,-31.39 2.93,-31.15 3.48,-31.15 C3.48,-31.15 6.5,-31.15 6.5,-31.15 C6.5,-31.15 6.5,-2.29 6.5,-2.29 C6.5,-2.29 3.02,-1.87 3.02,-1.87 C2.77,-1.56 2.65,-1.21 2.65,-0.83 C2.65,-0.49 2.72,-0.21 2.86,0 C2.86,0 27.04,0 27.04,0 C27.53,-0.38 27.94,-0.83 28.29,-1.35z" transform="matrix(1,0,0,1,453.07598876953125,0)" opacity="1" style="display: inherit;"></path>
        <path stroke-linecap="butt" stroke-linejoin="round" stroke-miterlimit="4" d=" M42.02,-0.42 C42.19,-1.01 42.28,-1.42 42.28,-1.66 C42.28,-2.15 42,-2.39 41.44,-2.39 C41.44,-2.39 38.43,-2.39 38.43,-2.39 C38.43,-2.39 38.43,-31.25 38.43,-31.25 C38.43,-31.25 41.91,-31.67 41.91,-31.67 C42.15,-31.98 42.28,-32.33 42.28,-32.71 C42.28,-33.05 42.21,-33.33 42.07,-33.54 C42.07,-33.54 35,-33.54 35,-33.54 C35,-33.54 22.52,-7.85 22.52,-7.85 C22.52,-7.85 9.72,-33.54 9.72,-33.54 C9.72,-33.54 3.02,-33.54 3.02,-33.54 C3.02,-33.54 2.91,-33.12 2.91,-33.12 C2.74,-32.53 2.65,-32.12 2.65,-31.88 C2.65,-31.39 2.93,-31.15 3.48,-31.15 C3.48,-31.15 6.5,-31.15 6.5,-31.15 C6.5,-31.15 6.5,-2.29 6.5,-2.29 C6.5,-2.29 3.02,-1.87 3.02,-1.87 C2.77,-1.56 2.65,-1.21 2.65,-0.83 C2.65,-0.49 2.72,-0.21 2.86,0 C2.86,0 12.69,0 12.69,0 C12.69,0 12.79,-0.42 12.79,-0.42 C12.97,-1.01 13.05,-1.42 13.05,-1.66 C13.05,-2.15 12.77,-2.39 12.22,-2.39 C12.22,-2.39 9.2,-2.39 9.2,-2.39 C9.2,-2.39 9.2,-28.34 9.2,-28.34 C9.2,-28.34 21.22,-4.16 21.22,-4.16 C21.56,-4.09 21.94,-4.06 22.36,-4.06 C22.78,-4.06 23.16,-4.09 23.5,-4.16 C23.5,-4.16 35.52,-28.96 35.52,-28.96 C35.52,-28.96 35.52,-2.29 35.52,-2.29 C35.52,-2.29 32.03,-1.87 32.03,-1.87 C31.79,-1.56 31.67,-1.21 31.67,-0.83 C31.67,-0.49 31.74,-0.21 31.88,0 C31.88,0 41.91,0 41.91,0 C41.91,0 42.02,-0.42 42.02,-0.42z" transform="matrix(1,0,0,1,484.0679931640625,0)" opacity="1" style="display: inherit;"></path>
        <path stroke-linecap="butt" stroke-linejoin="round" stroke-miterlimit="4" d=" M22.05,-0.42 C22.22,-1.01 22.31,-1.42 22.31,-1.66 C22.31,-2.15 22.03,-2.39 21.48,-2.39 C21.48,-2.39 16.9,-2.39 16.9,-2.39 C16.9,-2.39 16.9,-11.96 16.9,-11.96 C16.9,-11.96 27.46,-31.25 27.46,-31.25 C27.46,-31.25 30.94,-31.67 30.94,-31.67 C31.18,-31.98 31.3,-32.33 31.3,-32.71 C31.3,-33.05 31.23,-33.33 31.1,-33.54 C31.1,-33.54 21.06,-33.54 21.06,-33.54 C21.06,-33.54 20.96,-33.12 20.96,-33.12 C20.78,-32.53 20.7,-32.12 20.7,-31.88 C20.7,-31.39 20.97,-31.15 21.53,-31.15 C21.53,-31.15 24.54,-31.15 24.54,-31.15 C24.54,-31.15 15.65,-14.46 15.65,-14.46 C15.65,-14.46 6.66,-31.25 6.66,-31.25 C6.66,-31.25 10.14,-31.67 10.14,-31.67 C10.38,-31.98 10.5,-32.33 10.5,-32.71 C10.5,-33.05 10.43,-33.33 10.3,-33.54 C10.3,-33.54 0,-33.54 0,-33.54 C0,-33.54 -0.1,-33.12 -0.1,-33.12 C-0.28,-32.53 -0.36,-32.12 -0.36,-31.88 C-0.36,-31.39 -0.09,-31.15 0.47,-31.15 C0.47,-31.15 3.48,-31.15 3.48,-31.15 C3.48,-31.15 13.99,-11.96 13.99,-11.96 C13.99,-11.96 13.99,-2.29 13.99,-2.29 C13.99,-2.29 8.94,-1.87 8.94,-1.87 C8.7,-1.56 8.58,-1.21 8.58,-0.83 C8.58,-0.49 8.65,-0.21 8.79,0 C8.79,0 21.94,0 21.94,0 C21.94,0 22.05,-0.42 22.05,-0.42z" transform="matrix(1,0,0,1,528.9960327148438,0)" opacity="1" style="display: inherit;"></path>
    </g> -->
</svg>