<svg xmlns="http://www.w3.org/2000/svg" viewBox="0 0 800 800" width="800" height="800" preserveAspectRatio="xMidYMid meet" style="width: 100%; height: 100%; transform: translate3d(0px, 0px, 0px);">
    <defs>
        <clipPath id="__lottie_element_2">
            <rect width="800" height="800" x="0" y="0"></rect>
        </clipPath>
        <clipPath id="__lottie_element_4">
            <path d="M0,0 L800,0 L800,800 L0,800z"></path>
        </clipPath>
    </defs>
    <g clip-path="url(#__lottie_element_2)">
        <g id="logo" clip-path="url(#__lottie_element_4)" transform="matrix(1,0,0,1,0,0)" opacity="1" style="display: block;">
            <g id="vscode2" transform="matrix(3,0,0,3,548.5,795.25)" opacity="1" style="display: block;">
                <g id="vscode2-Shape1" opacity="1" transform="matrix(1,0,0,1,3.5,-2)">
                    <path fill="rgb(218,218,218)" fill-opacity="1" d=" M-15,-246 C-15,-246 -122,-246 -122,-246 C-122,-246 -121.75,-139.5 -121.75,-139.5 C-121.75,-139.5 -15,-246 -15,-246z" id="vscode2-Shape1-Path1"></path>
                </g>
                <g id="vscode2-Shape2" opacity="1" transform="matrix(1,0,0,1,0,0)">
                    <path fill="rgb(218,218,218)" fill-opacity="1" d=" M56.625,-247.5 C56.625,-247.5 9.5,-248 9.5,-248 C9.5,-248 -131,-107.625 -131,-107.625 C-131,-107.625 -130.5,-247.5 -130.5,-247.5 C-130.5,-247.5 -165.5,-247.5 -165.5,-247.5 C-165.5,-247.5 -165.5,-25.5 -165.5,-25.5 C-165.5,-25.5 56.625,-247.5 56.625,-247.5z" id="vscode2-Shape2-Path1"></path>
                </g>
                <g id="vscode2-Shape3" opacity="1" transform="matrix(-1,0,0,-1,-99,-263.5)">
                    <path fill="rgb(218,218,218)" fill-opacity="1" d=" M56.625,-247.5 C56.625,-247.5 9.5,-248 9.5,-248 C9.5,-248 -131,-107.625 -131,-107.625 C-131,-107.625 -130.5,-247.5 -130.5,-247.5 C-130.5,-247.5 -165.5,-247.5 -165.5,-247.5 C-165.5,-247.5 -165.5,-25.5 -165.5,-25.5 C-165.5,-25.5 56.625,-247.5 56.625,-247.5z" id="vscode2-Shape3-Path1"></path>
                </g>
            </g>
        </g>
    </g>
</svg>